<svg width="89" height="23" viewBox="0 0 89 23" fill="none" xmlns="http://www.w3.org/2000/svg">
<g clip-path="url(#clip0_1142_3812)">
<path d="M33.6786 6.55897C34.2495 6.66406 34.7189 6.94583 35.0866 7.40432C35.4542 7.86281 35.6381 8.38817 35.6381 8.98038C35.6381 9.5153 35.5027 9.9881 35.2317 10.3988C34.9704 10.8 34.5883 11.1152 34.085 11.3445C33.5818 11.5737 32.9867 11.6883 32.2997 11.6883H27.9307V1.6875H32.111C32.798 1.6875 33.3883 1.79735 33.8818 2.01704C34.3851 2.23672 34.7625 2.5424 35.014 2.93402C35.2753 3.32564 35.4059 3.76981 35.4059 4.26651C35.4059 4.84919 35.2462 5.33633 34.9269 5.72796C34.6173 6.11958 34.2012 6.3966 33.6786 6.55897ZM29.9628 5.81392H31.8207C32.3045 5.81392 32.6771 5.70886 32.9383 5.49871C33.1996 5.27902 33.3303 4.96858 33.3303 4.5674C33.3303 4.16622 33.1996 3.85577 32.9383 3.63609C32.6771 3.4164 32.3045 3.30655 31.8207 3.30655H29.9628V5.81392ZM32.0094 10.055C32.5029 10.055 32.8851 9.94035 33.1561 9.7111C33.4366 9.48186 33.577 9.15711 33.577 8.73681C33.577 8.30697 33.4319 7.97266 33.1416 7.73386C32.8513 7.48551 32.4593 7.36133 31.9658 7.36133H29.9628V10.055H32.0094Z" fill="white"/>
<path d="M40.3349 11.8166C39.6769 11.8166 39.0866 11.702 38.5641 11.4728C38.0415 11.234 37.6254 10.914 37.3158 10.5128C37.0157 10.1116 36.8513 9.66745 36.8223 9.18031H38.8689C38.9077 9.48596 39.0576 9.73909 39.3188 9.93968C39.5899 10.1403 39.9237 10.2406 40.3204 10.2406C40.7075 10.2406 41.0074 10.1642 41.2203 10.0113C41.4428 9.85851 41.5542 9.66268 41.5542 9.42388C41.5542 9.16598 41.4188 8.97495 41.1477 8.85077C40.8865 8.71704 40.4655 8.57377 39.8849 8.42093C39.285 8.27765 38.7915 8.1296 38.4044 7.97677C38.027 7.82395 37.6979 7.58991 37.4174 7.2747C37.1464 6.95949 37.011 6.53442 37.011 5.99952C37.011 5.56013 37.1368 5.15895 37.3884 4.79598C37.6496 4.43301 38.0173 4.14646 38.4915 3.93631C38.9753 3.72616 39.5414 3.62109 40.1898 3.62109C41.1477 3.62109 41.9123 3.8599 42.4831 4.33749C43.054 4.80554 43.3685 5.44073 43.4266 6.24309H41.4816C41.4526 5.92788 41.3171 5.67954 41.0752 5.49804C40.8429 5.30701 40.5284 5.21149 40.1317 5.21149C39.764 5.21149 39.4785 5.27836 39.2753 5.41208C39.0818 5.5458 38.985 5.73206 38.985 5.97086C38.985 6.23832 39.1204 6.44368 39.3914 6.58696C39.6624 6.72068 40.0834 6.85919 40.6542 7.00247C41.2348 7.14575 41.7138 7.29382 42.0912 7.44663C42.4686 7.59947 42.7927 7.83826 43.0637 8.16303C43.3443 8.47824 43.4894 8.89852 43.4992 9.42388C43.4992 9.88237 43.3685 10.2931 43.1073 10.6561C42.8557 11.019 42.4879 11.3056 42.0041 11.5157C41.5299 11.7163 40.9736 11.8166 40.3349 11.8166Z" fill="white"/>
<path d="M44.6445 7.71886C44.6445 6.89741 44.8139 6.18101 45.1526 5.56968C45.4912 4.94882 45.9606 4.47121 46.5605 4.1369C47.1604 3.79303 47.8476 3.62109 48.6216 3.62109C49.6184 3.62109 50.4408 3.86944 51.0892 4.36614C51.7472 4.85329 52.1876 5.54103 52.4101 6.42936H50.2183C50.1022 6.08549 49.9037 5.81803 49.6232 5.627C49.3522 5.4264 49.0136 5.32611 48.6071 5.32611C48.0265 5.32611 47.5668 5.53626 47.2282 5.95654C46.8896 6.36727 46.7202 6.95472 46.7202 7.71886C46.7202 8.47347 46.8896 9.06091 47.2282 9.48119C47.5668 9.89193 48.0265 10.0973 48.6071 10.0973C49.4297 10.0973 49.9668 9.73432 50.2183 9.00837H52.4101C52.1876 9.86804 51.7472 10.551 51.0892 11.0573C50.4313 11.5635 49.6087 11.8166 48.6216 11.8166C47.8476 11.8166 47.1604 11.6495 46.5605 11.3152C45.9606 10.9713 45.4912 10.4937 45.1526 9.88237C44.8139 9.2615 44.6445 8.54034 44.6445 7.71886Z" fill="white"/>
<path d="M57.3971 11.7874C56.6906 11.7874 56.052 11.668 55.4811 11.4292C54.9198 11.1904 54.4748 10.8465 54.1457 10.3976C53.8167 9.94865 53.6474 9.41852 53.6377 8.80719H55.8149C55.844 9.21793 55.9891 9.5427 56.2504 9.78149C56.5214 10.0203 56.8891 10.1397 57.3535 10.1397C57.8278 10.1397 58.2002 10.0299 58.4712 9.81015C58.7422 9.5809 58.8776 9.28478 58.8776 8.92182C58.8776 8.6257 58.7858 8.38215 58.6018 8.1911C58.4179 8.00006 58.1857 7.85202 57.9051 7.74693C57.6341 7.63231 57.2567 7.50813 56.7729 7.37441C56.115 7.18338 55.5779 6.99711 55.1618 6.81562C54.7554 6.62459 54.4022 6.3428 54.1022 5.97028C53.8119 5.58819 53.6667 5.08195 53.6667 4.45152C53.6667 3.85931 53.8166 3.34351 54.1167 2.90411C54.4167 2.46472 54.8377 2.13041 55.3795 1.90116C55.9213 1.66237 56.5407 1.54297 57.2374 1.54297C58.2825 1.54297 59.1291 1.79609 59.7776 2.30234C60.4355 2.79905 60.7984 3.49632 60.8662 4.39421H58.6309C58.6116 4.05034 58.4615 3.76855 58.1809 3.54887C57.9099 3.31962 57.547 3.205 57.0923 3.205C56.6956 3.205 56.3763 3.30529 56.1343 3.50588C55.902 3.70647 55.7859 3.9978 55.7859 4.37988C55.7859 4.64734 55.873 4.8718 56.0472 5.05329C56.2311 5.22523 56.4536 5.36851 56.7149 5.48313C56.9859 5.58819 57.3633 5.71237 57.8471 5.85565C58.505 6.04669 59.0421 6.23774 59.4582 6.42877C59.8744 6.6198 60.2323 6.90638 60.5323 7.28844C60.8324 7.67052 60.9823 8.172 60.9823 8.79287C60.9823 9.32779 60.8419 9.82447 60.5614 10.283C60.2808 10.7415 59.8694 11.1092 59.3276 11.3862C58.7858 11.6537 58.1421 11.7874 57.3971 11.7874Z" fill="white"/>
<path d="M62.2217 7.71886C62.2217 6.89741 62.3911 6.18101 62.7297 5.56968C63.0685 4.94882 63.5378 4.47121 64.1377 4.1369C64.7377 3.79303 65.4247 3.62109 66.1988 3.62109C67.1956 3.62109 68.0181 3.86944 68.6663 4.36614C69.3245 4.85329 69.7647 5.54103 69.9872 6.42936H67.7954C67.6793 6.08549 67.4811 5.81803 67.2003 5.627C66.9295 5.4264 66.5907 5.32611 66.1843 5.32611C65.6037 5.32611 65.1442 5.53626 64.8054 5.95654C64.4667 6.36727 64.2973 6.95472 64.2973 7.71886C64.2973 8.47347 64.4667 9.06091 64.8054 9.48119C65.1442 9.89193 65.6037 10.0973 66.1843 10.0973C67.0069 10.0973 67.5439 9.73432 67.7954 9.00837H69.9872C69.7647 9.86804 69.3245 10.551 68.6663 11.0573C68.0084 11.5635 67.1858 11.8166 66.1988 11.8166C65.4247 11.8166 64.7377 11.6495 64.1377 11.3152C63.5378 10.9713 63.0685 10.4937 62.7297 9.88237C62.3911 9.2615 62.2217 8.54034 62.2217 7.71886Z" fill="white"/>
<path d="M70.9531 7.69021C70.9531 6.88785 71.1128 6.17624 71.4321 5.55536C71.7612 4.93449 72.2014 4.45688 72.753 4.12257C73.3143 3.78826 73.9384 3.62109 74.6254 3.62109C75.2253 3.62109 75.7479 3.74049 76.193 3.97929C76.6478 4.21809 77.0107 4.51898 77.2817 4.88195V3.75004H79.3283V11.6877H77.2817V10.5271C77.0204 10.8997 76.6575 11.2101 76.193 11.4584C75.7383 11.6972 75.2108 11.8166 74.6109 11.8166C73.9335 11.8166 73.3143 11.6447 72.753 11.3008C72.2014 10.957 71.7612 10.4746 71.4321 9.85372C71.1128 9.22329 70.9531 8.50213 70.9531 7.69021ZM77.2817 7.71886C77.2817 7.23172 77.1848 6.81621 76.9914 6.47234C76.7979 6.11891 76.5366 5.85147 76.2076 5.66998C75.8785 5.47895 75.5254 5.38342 75.148 5.38342C74.7706 5.38342 74.4222 5.47416 74.1029 5.65565C73.7836 5.83714 73.5223 6.10458 73.3191 6.45801C73.1256 6.80188 73.0288 7.21262 73.0288 7.69021C73.0288 8.1678 73.1256 8.58809 73.3191 8.95106C73.5223 9.30449 73.7836 9.57672 74.1029 9.76775C74.432 9.9588 74.7803 10.0543 75.148 10.0543C75.5254 10.0543 75.8785 9.96357 76.2076 9.78208C76.5366 9.59104 76.7979 9.32359 76.9914 8.97972C77.1848 8.62631 77.2817 8.20601 77.2817 7.71886Z" fill="white"/>
<path d="M85.7691 3.63672C86.7271 3.63672 87.5012 3.9376 88.0915 4.53937C88.6818 5.13159 88.9769 5.96262 88.9769 7.03242V11.689H86.9448V7.30465C86.9448 6.67423 86.7851 6.19185 86.4658 5.85754C86.1465 5.51367 85.711 5.34174 85.1595 5.34174C84.5982 5.34174 84.1532 5.51367 83.8241 5.85754C83.5048 6.19185 83.3451 6.67423 83.3451 7.30465V11.689H81.313V3.75134H83.3451V4.73996C83.6161 4.3961 83.9595 4.12864 84.3757 3.9376C84.8014 3.73701 85.2658 3.63672 85.7691 3.63672Z" fill="white"/>
<path d="M29.1823 20.2137C28.8783 20.2137 28.6059 20.1651 28.3653 20.0676C28.1244 19.9702 27.931 19.8261 27.785 19.6351C27.6429 19.4442 27.5679 19.2144 27.5601 18.9455H28.6376C28.6533 19.0975 28.7066 19.2144 28.7975 19.2962C28.8882 19.374 29.0066 19.4131 29.1527 19.4131C29.3026 19.4131 29.421 19.3799 29.5079 19.3137C29.5946 19.2436 29.6382 19.1482 29.6382 19.0273C29.6382 18.9261 29.6027 18.8423 29.5316 18.7761C29.4644 18.7098 29.3796 18.6553 29.277 18.6124C29.1783 18.5695 29.0362 18.5208 28.8508 18.4663C28.5822 18.3845 28.3632 18.3027 28.1936 18.2209C28.0238 18.139 27.8777 18.0182 27.7554 17.8585C27.633 17.6987 27.5719 17.4903 27.5719 17.2332C27.5719 16.8513 27.7119 16.5533 27.9923 16.339C28.2724 16.1208 28.6376 16.0117 29.0876 16.0117C29.5454 16.0117 29.9144 16.1208 30.1947 16.339C30.4749 16.5533 30.6248 16.8533 30.6447 17.239H29.5494C29.5414 17.1065 29.4921 17.0033 29.4014 16.9293C29.3105 16.8513 29.1941 16.8124 29.0521 16.8124C28.9296 16.8124 28.8309 16.8455 28.756 16.9117C28.681 16.9741 28.6435 17.0656 28.6435 17.1864C28.6435 17.3189 28.7066 17.4221 28.833 17.4962C28.9592 17.5702 29.1565 17.6501 29.425 17.7358C29.6934 17.8254 29.9105 17.9111 30.0763 17.9929C30.2459 18.0747 30.392 18.1936 30.5144 18.3494C30.6367 18.5053 30.698 18.7059 30.698 18.9514C30.698 19.1851 30.6367 19.3974 30.5144 19.5884C30.396 19.7794 30.2222 19.9313 29.9934 20.0442C29.7644 20.1572 29.494 20.2137 29.1823 20.2137Z" fill="#CECECF"/>
<path d="M31.1196 18.5406C31.1196 18.2016 31.1888 17.9055 31.3269 17.6523C31.4689 17.399 31.6643 17.2042 31.913 17.0678C32.1657 16.9315 32.4537 16.8633 32.7774 16.8633C33.1918 16.8633 33.5371 16.9704 33.8135 17.1847C34.0937 17.399 34.2772 17.701 34.3641 18.0906H33.2866C33.1959 17.8412 33.0201 17.7165 32.7596 17.7165C32.5742 17.7165 32.4262 17.7886 32.3156 17.9328C32.205 18.073 32.1498 18.2756 32.1498 18.5406C32.1498 18.8055 32.205 19.01 32.3156 19.1542C32.4262 19.2945 32.5742 19.3646 32.7596 19.3646C33.0201 19.3646 33.1959 19.24 33.2866 18.9906H34.3641C34.2772 19.3723 34.0937 19.6725 33.8135 19.8906C33.5333 20.1087 33.1878 20.2179 32.7774 20.2179C32.4537 20.2179 32.1657 20.1496 31.913 20.0133C31.6643 19.877 31.4689 19.6821 31.3269 19.4289C31.1888 19.1757 31.1196 18.8795 31.1196 18.5406Z" fill="#CECECF"/>
<path d="M34.7046 18.5347C34.7046 18.1997 34.7676 17.9055 34.894 17.6523C35.0243 17.399 35.1998 17.2042 35.421 17.0678C35.642 16.9315 35.8887 16.8633 36.1611 16.8633C36.3939 16.8633 36.5971 16.91 36.7709 17.0035C36.9485 17.0971 37.0847 17.2198 37.1794 17.3717V16.91H38.1918V20.1711H37.1794V19.7094C37.0807 19.8614 36.9426 19.9841 36.765 20.0776C36.5912 20.1711 36.388 20.2179 36.1551 20.2179C35.8866 20.2179 35.642 20.1496 35.421 20.0133C35.1998 19.8731 35.0243 19.6762 34.894 19.423C34.7676 19.1659 34.7046 18.8697 34.7046 18.5347ZM37.1794 18.5406C37.1794 18.2912 37.1084 18.0945 36.9663 17.9503C36.828 17.8061 36.6584 17.7341 36.4571 17.7341C36.2558 17.7341 36.0841 17.8061 35.942 17.9503C35.8037 18.0906 35.7348 18.2854 35.7348 18.5347C35.7348 18.7841 35.8037 18.9828 35.942 19.1308C36.0841 19.2751 36.2558 19.3471 36.4571 19.3471C36.6584 19.3471 36.828 19.2751 36.9663 19.1308C37.1084 18.9866 37.1794 18.7899 37.1794 18.5406Z" fill="#CECECF"/>
<path d="M40.9373 16.875C41.3241 16.875 41.6319 16.9997 41.8609 17.249C42.0937 17.4945 42.2103 17.8335 42.2103 18.2659V20.1711H41.2038V18.4004C41.2038 18.1822 41.1465 18.0127 41.0321 17.8919C40.9175 17.7711 40.7635 17.7107 40.5702 17.7107C40.3768 17.7107 40.2228 17.7711 40.1084 17.8919C39.9938 18.0127 39.9367 18.1822 39.9367 18.4004V20.1711H38.9243V16.9101H39.9367V17.3425C40.0393 17.1984 40.1774 17.0854 40.3512 17.0036C40.5248 16.9179 40.7202 16.875 40.9373 16.875Z" fill="#CECECF"/>
<path d="M46.1339 20.2137C45.7432 20.2137 45.3839 20.1242 45.0564 19.9449C44.7326 19.7656 44.4741 19.5164 44.2808 19.1968C44.0913 18.8735 43.9966 18.5111 43.9966 18.1098C43.9966 17.7085 44.0913 17.3481 44.2808 17.0286C44.4741 16.7091 44.7326 16.4598 45.0564 16.2806C45.3839 16.1013 45.7432 16.0117 46.1339 16.0117C46.5247 16.0117 46.8818 16.1013 47.2055 16.2806C47.5331 16.4598 47.7896 16.7091 47.9752 17.0286C48.1647 17.3481 48.2594 17.7085 48.2594 18.1098C48.2594 18.5111 48.1647 18.8735 47.9752 19.1968C47.7858 19.5164 47.5291 19.7656 47.2055 19.9449C46.8818 20.1242 46.5247 20.2137 46.1339 20.2137ZM46.1339 19.302C46.4655 19.302 46.7298 19.1929 46.9273 18.9747C47.1286 18.7566 47.2292 18.4683 47.2292 18.1098C47.2292 17.7475 47.1286 17.4591 46.9273 17.2449C46.7298 17.0267 46.4655 16.9176 46.1339 16.9176C45.7984 16.9176 45.53 17.0247 45.3287 17.239C45.1312 17.4533 45.0327 17.7436 45.0327 18.1098C45.0327 18.4722 45.1312 18.7624 45.3287 18.9806C45.53 19.1949 45.7984 19.302 46.1339 19.302Z" fill="#CECECF"/>
<path d="M49.8352 17.4536C49.9536 17.2744 50.1016 17.1341 50.2792 17.0328C50.4568 16.9276 50.6541 16.875 50.8713 16.875V17.9328H50.593C50.3403 17.9328 50.1509 17.9874 50.0246 18.0965C49.8982 18.2016 49.8352 18.3887 49.8352 18.6575V20.1711H48.8228V16.9101H49.8352V17.4536Z" fill="#CECECF"/>
<path d="M51.8642 16.5734C51.6865 16.5734 51.5406 16.5227 51.426 16.4214C51.3156 16.3162 51.2603 16.1877 51.2603 16.0357C51.2603 15.8799 51.3156 15.7513 51.426 15.65C51.5406 15.5448 51.6865 15.4922 51.8642 15.4922C52.038 15.4922 52.1801 15.5448 52.2904 15.65C52.405 15.7513 52.4621 15.8799 52.4621 16.0357C52.4621 16.1877 52.405 16.3162 52.2904 16.4214C52.1801 16.5227 52.038 16.5734 51.8642 16.5734ZM52.3674 16.9123V20.1734H51.355V16.9123H52.3674Z" fill="#CECECF"/>
<path d="M54.3564 16.8633C54.5892 16.8633 54.7926 16.91 54.9662 17.0035C55.1438 17.0971 55.28 17.2198 55.3747 17.3717V16.91H56.3871V20.1653C56.3871 20.4652 56.326 20.7361 56.2036 20.9776C56.0852 21.2231 55.9016 21.4178 55.653 21.562C55.4083 21.7063 55.1024 21.7783 54.7353 21.7783C54.2458 21.7783 53.8491 21.6633 53.5452 21.4335C53.2414 21.2074 53.0676 20.8998 53.0242 20.5101H54.0248C54.0563 20.6347 54.1314 20.7322 54.2498 20.8023C54.3682 20.8764 54.5143 20.9133 54.6879 20.9133C54.8971 20.9133 55.0628 20.853 55.1853 20.7322C55.3115 20.6153 55.3747 20.4264 55.3747 20.1653V19.7036C55.276 19.8555 55.1398 19.9801 54.9662 20.0776C54.7926 20.1711 54.5892 20.2179 54.3564 20.2179C54.084 20.2179 53.8373 20.1496 53.6163 20.0133C53.3953 19.8731 53.2196 19.6762 53.0894 19.423C52.9631 19.1659 52.8999 18.8697 52.8999 18.5347C52.8999 18.1997 52.9631 17.9055 53.0894 17.6523C53.2196 17.399 53.3953 17.2042 53.6163 17.0678C53.8373 16.9315 54.084 16.8633 54.3564 16.8633ZM55.3747 18.5406C55.3747 18.2912 55.3037 18.0945 55.1616 17.9503C55.0235 17.8061 54.8537 17.7341 54.6524 17.7341C54.4511 17.7341 54.2794 17.8061 54.1373 17.9503C53.9992 18.0906 53.9301 18.2854 53.9301 18.5347C53.9301 18.7841 53.9992 18.9828 54.1373 19.1308C54.2794 19.2751 54.4511 19.3471 54.6524 19.3471C54.8537 19.3471 55.0235 19.2751 55.1616 19.1308C55.3037 18.9866 55.3747 18.7899 55.3747 18.5406Z" fill="#CECECF"/>
<path d="M57.6288 16.5734C57.4512 16.5734 57.3051 16.5227 57.1907 16.4214C57.0801 16.3162 57.0249 16.1877 57.0249 16.0357C57.0249 15.8799 57.0801 15.7513 57.1907 15.65C57.3051 15.5448 57.4512 15.4922 57.6288 15.4922C57.8024 15.4922 57.9445 15.5448 58.0551 15.65C58.1695 15.7513 58.2268 15.8799 58.2268 16.0357C58.2268 16.1877 58.1695 16.3162 58.0551 16.4214C57.9445 16.5227 57.8024 16.5734 57.6288 16.5734ZM58.1321 16.9123V20.1734H57.1196V16.9123H58.1321Z" fill="#CECECF"/>
<path d="M60.8787 16.875C61.2655 16.875 61.5733 16.9997 61.8023 17.249C62.0352 17.4945 62.1517 17.8335 62.1517 18.2659V20.1711H61.1452V18.4004C61.1452 18.1822 61.0879 18.0127 60.9735 17.8919C60.8589 17.7711 60.7049 17.7107 60.5117 17.7107C60.3182 17.7107 60.1642 17.7711 60.0498 17.8919C59.9353 18.0127 59.8782 18.1822 59.8782 18.4004V20.1711H58.8657V16.9101H59.8782V17.3425C59.9807 17.1984 60.1188 17.0854 60.2926 17.0036C60.4662 16.9179 60.6616 16.875 60.8787 16.875Z" fill="#CECECF"/>
<path d="M62.6538 18.5347C62.6538 18.1997 62.717 17.9055 62.8433 17.6523C62.9735 17.399 63.1492 17.2042 63.3702 17.0678C63.5914 16.9315 63.8379 16.8633 64.1103 16.8633C64.3433 16.8633 64.5465 16.91 64.7201 17.0035C64.8977 17.0971 65.0339 17.2198 65.1286 17.3717V16.91H66.141V20.1711H65.1286V19.7094C65.0301 19.8614 64.8918 19.9841 64.7142 20.0776C64.5406 20.1711 64.3374 20.2179 64.1044 20.2179C63.836 20.2179 63.5914 20.1496 63.3702 20.0133C63.1492 19.8731 62.9735 19.6762 62.8433 19.423C62.717 19.1659 62.6538 18.8697 62.6538 18.5347ZM65.1286 18.5406C65.1286 18.2912 65.0576 18.0945 64.9155 17.9503C64.7774 17.8061 64.6076 17.7341 64.4063 17.7341C64.205 17.7341 64.0333 17.8061 63.8912 17.9503C63.7531 18.0906 63.684 18.2854 63.684 18.5347C63.684 18.7841 63.7531 18.9828 63.8912 19.1308C64.0333 19.2751 64.205 19.3471 64.4063 19.3471C64.6076 19.3471 64.7774 19.2751 64.9155 19.1308C65.0576 18.9866 65.1286 18.7899 65.1286 18.5406Z" fill="#CECECF"/>
<path d="M67.886 15.8477V20.1724H66.8735V15.8477H67.886Z" fill="#CECECF"/>
<path d="M4.81723 10.8558C4.81725 10.7281 4.84282 10.6016 4.8925 10.4837C4.94217 10.3658 5.01494 10.2587 5.10665 10.1686C5.19836 10.0785 5.30721 10.0072 5.42692 9.95874C5.54663 9.91028 5.67486 9.88564 5.80425 9.88623L7.44063 9.89151C7.70154 9.89151 7.95177 9.99382 8.13626 10.1759C8.32076 10.358 8.4244 10.6051 8.4244 10.8626V16.9708C8.60871 16.9169 8.84458 16.8594 9.10413 16.799C9.28394 16.7573 9.4442 16.6568 9.55891 16.5139C9.67361 16.3709 9.73606 16.1939 9.7361 16.0116V8.43534C9.7361 8.17778 9.83973 7.93076 10.0242 7.74862C10.2087 7.56647 10.459 7.46412 10.7199 7.46406H12.3612C12.6221 7.46412 12.8724 7.56647 13.0569 7.74862C13.2413 7.93076 13.345 8.17778 13.345 8.43534V15.4673C13.345 15.4673 13.7556 15.3033 14.1554 15.1366C14.3039 15.0746 14.4306 14.9708 14.5198 14.8381C14.6089 14.7055 14.6566 14.5499 14.6567 14.3906V6.00752C14.6567 5.75002 14.7603 5.50305 14.9448 5.32094C15.1292 5.13882 15.3794 5.03649 15.6403 5.03643H17.2799C17.5406 5.0367 17.7906 5.1391 17.9749 5.3212C18.1592 5.5033 18.2627 5.75015 18.2627 6.00752V12.9107C19.6843 11.8938 21.1249 10.6707 22.2681 9.2C22.4339 8.98653 22.5437 8.73585 22.5877 8.47031C22.6314 8.20478 22.6081 7.93266 22.5195 7.67823C21.9903 6.17535 21.149 4.79804 20.0496 3.63449C18.9502 2.47094 17.6168 1.54673 16.1348 0.921024C14.6528 0.295322 13.0548 -0.0181035 11.4431 0.000807539C9.83129 0.0197185 8.24127 0.370549 6.77475 1.03085C5.30822 1.69114 3.99749 2.64638 2.92642 3.8354C1.85536 5.02443 1.04754 6.42107 0.554671 7.93596C0.0617993 9.45083 -0.105272 11.0506 0.0641469 12.6329C0.233566 14.2152 0.735744 15.7451 1.53855 17.1248C1.67841 17.3628 1.88419 17.5565 2.1317 17.6831C2.3792 17.8096 2.65816 17.8639 2.93582 17.8393C3.24598 17.8124 3.63215 17.7743 4.09129 17.7211C4.2911 17.6987 4.47559 17.6045 4.60959 17.4565C4.7436 17.3084 4.81778 17.1169 4.81799 16.9184V10.8558" fill="white"/>
<path d="M4.78223 20.653C6.51051 21.8941 8.55292 22.6391 10.6835 22.8054C12.8141 22.9719 14.9497 22.5532 16.8542 21.5958C18.7587 20.6385 20.3578 19.1797 21.4745 17.381C22.5912 15.5822 23.1821 13.5135 23.1817 11.4038C23.1817 11.1399 23.1693 10.8801 23.1515 10.6211C18.9187 16.8528 11.1031 19.766 4.78223 20.653Z" fill="#F0B90B"/>
</g>
<defs>
<clipPath id="clip0_1142_3812">
<rect width="89" height="23" fill="white"/>
</clipPath>
</defs>
</svg>
