<svg width="98" height="23" viewBox="0 0 98 23" fill="none" xmlns="http://www.w3.org/2000/svg">
<path d="M91.8472 22.001V14.6562H94.8166C95.2712 14.6562 95.6699 14.7367 96.0127 14.8976C96.3624 15.0515 96.6353 15.2753 96.8311 15.5691C97.027 15.8559 97.1249 16.2021 97.1249 16.6079V16.7233C97.1249 17.2059 97.0095 17.5872 96.7786 17.867C96.5478 18.1468 96.275 18.3356 95.9602 18.4336V18.5805C96.2121 18.5874 96.4184 18.6714 96.5793 18.8323C96.7472 18.9862 96.8311 19.2205 96.8311 19.5353V22.001H95.9602V19.6402C95.9602 19.4303 95.9008 19.2695 95.7819 19.1575C95.6699 19.0456 95.4986 18.9897 95.2677 18.9897H92.7285V22.001H91.8472ZM92.7285 18.1922H94.7326C95.2153 18.1922 95.586 18.0768 95.8448 17.846C96.1106 17.6081 96.2435 17.2794 96.2435 16.8597V16.7862C96.2435 16.3665 96.1141 16.0413 95.8553 15.8104C95.5965 15.5726 95.2223 15.4537 94.7326 15.4537H92.7285V18.1922Z" fill="white"/>
<path d="M85.9351 22.001V14.6562H90.4573V15.4537H86.8164V17.9089H90.1635V18.7064H86.8164V21.2036H90.5098V22.001H85.9351Z" fill="white"/>
<path d="M79.6333 22.001V14.6562H82.4453C82.886 14.6562 83.2777 14.7437 83.6205 14.9186C83.9702 15.0864 84.2465 15.3278 84.4494 15.6425C84.6522 15.9573 84.7536 16.3385 84.7536 16.7862V16.9226C84.7536 17.3633 84.6487 17.7445 84.4389 18.0663C84.236 18.3811 83.9597 18.6224 83.61 18.7903C83.2602 18.9582 82.872 19.0421 82.4453 19.0421H80.5147V22.001H79.6333ZM80.5147 18.2447H82.3509C82.8195 18.2447 83.1903 18.1293 83.4631 17.8984C83.7359 17.6606 83.8723 17.3283 83.8723 16.9016V16.7967C83.8723 16.37 83.7359 16.0413 83.4631 15.8104C83.1973 15.5726 82.8265 15.4537 82.3509 15.4537H80.5147V18.2447Z" fill="white"/>
<path d="M72.4473 22.001L74.7136 14.6562H76.2665L78.5329 22.001H77.6201L77.0535 20.1438H73.9267L73.3601 22.001H72.4473ZM74.1471 19.3464H76.8226L75.5635 15.1914H75.4166L74.1471 19.3464Z" fill="white"/>
<path d="M67.3169 22.001V14.6562H70.1289C70.5696 14.6562 70.9613 14.7437 71.3041 14.9186C71.6538 15.0864 71.9301 15.3278 72.133 15.6425C72.3358 15.9573 72.4372 16.3385 72.4372 16.7862V16.9226C72.4372 17.3633 72.3323 17.7445 72.1225 18.0663C71.9196 18.3811 71.6433 18.6224 71.2936 18.7903C70.9438 18.9582 70.5556 19.0421 70.1289 19.0421H68.1983V22.001H67.3169ZM68.1983 18.2447H70.0345C70.5031 18.2447 70.8739 18.1293 71.1467 17.8984C71.4195 17.6606 71.5559 17.3283 71.5559 16.9016V16.7967C71.5559 16.37 71.4195 16.0413 71.1467 15.8104C70.8809 15.5726 70.5101 15.4537 70.0345 15.4537H68.1983V18.2447Z" fill="white"/>
<path d="M58.71 22.001V14.6562H63.2322V15.4537H59.5913V17.9089H62.9384V18.7064H59.5913V21.2036H63.2847V22.001H58.71Z" fill="white"/>
<path d="M54.3462 22.001V15.4537H51.9854V14.6562H57.5884V15.4537H55.2275V22.001H54.3462Z" fill="white"/>
<path d="M49.98 22.001V14.6562H50.8614V22.001H49.98Z" fill="white"/>
<path d="M43.0942 22.001V14.6562H43.9756V17.9194H47.4172V14.6562H48.2985V22.001H47.4172V18.7169H43.9756V22.001H43.0942Z" fill="white"/>
<path d="M34.6581 22.001L33.4619 14.6562H34.3433L35.382 21.4344H35.5289L36.8825 14.6562H38.4564L39.7994 21.4344H39.9463L40.985 14.6562H41.8664L40.6703 22.001H39.0964L37.7429 15.1809H37.596L36.2424 22.001H34.6581Z" fill="white"/>
<path d="M78.2185 5.63672V10.0004H77.7072L75.3293 6.57422H75.2867V10.0004H74.7583V5.63672H75.2697L77.656 9.07138H77.6986V5.63672H78.2185Z" fill="white"/>
<path d="M73.8699 7.8196C73.8699 8.27983 73.7868 8.67756 73.6206 9.01278C73.4544 9.34801 73.2264 9.60653 72.9366 9.78835C72.6468 9.97017 72.3159 10.0611 71.9437 10.0611C71.5716 10.0611 71.2406 9.97017 70.9508 9.78835C70.661 9.60653 70.4331 9.34801 70.2669 9.01278C70.1007 8.67756 70.0176 8.27983 70.0176 7.8196C70.0176 7.35938 70.1007 6.96165 70.2669 6.62642C70.4331 6.29119 70.661 6.03267 70.9508 5.85085C71.2406 5.66903 71.5716 5.57812 71.9437 5.57812C72.3159 5.57812 72.6468 5.66903 72.9366 5.85085C73.2264 6.03267 73.4544 6.29119 73.6206 6.62642C73.7868 6.96165 73.8699 7.35938 73.8699 7.8196ZM73.3585 7.8196C73.3585 7.44176 73.2953 7.12287 73.1689 6.86293C73.0439 6.60298 72.8741 6.40625 72.6596 6.27273C72.4466 6.1392 72.2079 6.07244 71.9437 6.07244C71.6795 6.07244 71.4402 6.1392 71.2257 6.27273C71.0126 6.40625 70.8429 6.60298 70.7164 6.86293C70.5914 7.12287 70.5289 7.44176 70.5289 7.8196C70.5289 8.19744 70.5914 8.51634 70.7164 8.77628C70.8429 9.03622 71.0126 9.23295 71.2257 9.36648C71.4402 9.5 71.6795 9.56676 71.9437 9.56676C72.2079 9.56676 72.4466 9.5 72.6596 9.36648C72.8741 9.23295 73.0439 9.03622 73.1689 8.77628C73.2953 8.51634 73.3585 8.19744 73.3585 7.8196Z" fill="white"/>
<path d="M67.0607 6.72869C67.0351 6.51278 66.9314 6.34517 66.7496 6.22585C66.5678 6.10653 66.3448 6.04688 66.0806 6.04688C65.8874 6.04688 65.7183 6.07813 65.5735 6.14063C65.43 6.20313 65.3178 6.28906 65.2368 6.39844C65.1573 6.50781 65.1175 6.6321 65.1175 6.77131C65.1175 6.88778 65.1452 6.98793 65.2006 7.07173C65.2574 7.15412 65.3299 7.22301 65.4179 7.27841C65.506 7.33239 65.5983 7.37713 65.6949 7.41264C65.7915 7.44673 65.8803 7.47443 65.9612 7.49574L66.4044 7.61506C66.5181 7.64489 66.6445 7.68608 66.7837 7.73864C66.9243 7.79119 67.0585 7.86293 67.1864 7.95384C67.3156 8.04332 67.4222 8.15838 67.506 8.29901C67.5898 8.43963 67.6317 8.61222 67.6317 8.81676C67.6317 9.05256 67.5699 9.26562 67.4463 9.45597C67.3242 9.64631 67.1452 9.79759 66.9094 9.9098C66.675 10.022 66.3902 10.0781 66.055 10.0781C65.7425 10.0781 65.4719 10.0277 65.2432 9.92685C65.0159 9.82599 64.837 9.68537 64.7063 9.50497C64.577 9.32457 64.5039 9.11506 64.4868 8.87642H65.0323C65.0465 9.04119 65.1019 9.17756 65.1985 9.28551C65.2965 9.39205 65.4201 9.47159 65.5692 9.52415C65.7198 9.57528 65.8817 9.60085 66.055 9.60085C66.2567 9.60085 66.4378 9.56818 66.5983 9.50284C66.7588 9.43608 66.886 9.34375 66.9797 9.22585C67.0735 9.10653 67.1203 8.96733 67.1203 8.80824C67.1203 8.66335 67.0799 8.54545 66.9989 8.45455C66.9179 8.36364 66.8114 8.28977 66.6793 8.23295C66.5472 8.17614 66.4044 8.12642 66.251 8.08381L65.7141 7.9304C65.3732 7.83239 65.1033 7.69247 64.9044 7.51065C64.7056 7.32884 64.6061 7.09091 64.6061 6.79688C64.6061 6.55256 64.6722 6.33949 64.8043 6.15767C64.9378 5.97443 65.1168 5.83239 65.3412 5.73153C65.5671 5.62926 65.8192 5.57812 66.0976 5.57812C66.3789 5.57812 66.6289 5.62855 66.8476 5.7294C67.0664 5.82884 67.2397 5.9652 67.3675 6.13849C67.4968 6.31179 67.5649 6.50852 67.572 6.72869H67.0607Z" fill="white"/>
<path d="M63.0907 5.63672H63.6191V8.52592C63.6191 8.82422 63.5488 9.09055 63.4082 9.32493C63.269 9.55788 63.0722 9.74183 62.818 9.87678C62.5637 10.0103 62.2654 10.0771 61.9231 10.0771C61.5807 10.0771 61.2824 10.0103 61.0282 9.87678C60.7739 9.74183 60.5765 9.55788 60.4359 9.32493C60.2967 9.09055 60.2271 8.82422 60.2271 8.52592V5.63672H60.7555V8.48331C60.7555 8.69638 60.8023 8.88601 60.8961 9.0522C60.9898 9.21697 61.1234 9.34695 61.2967 9.44212C61.4714 9.53587 61.6802 9.58274 61.9231 9.58274C62.166 9.58274 62.3748 9.53587 62.5495 9.44212C62.7242 9.34695 62.8577 9.21697 62.9501 9.0522C63.0438 8.88601 63.0907 8.69638 63.0907 8.48331V5.63672Z" fill="white"/>
<path d="M53.637 10.0004L52.4438 5.63672H52.9808L53.8927 9.1907H53.9353L54.8643 5.63672H55.4609L56.3899 9.1907H56.4325L57.3444 5.63672H57.8813L56.6882 10.0004H56.1427L55.1796 6.52308H55.1456L54.1825 10.0004H53.637Z" fill="white"/>
<path d="M51.9558 7.8196C51.9558 8.27983 51.8727 8.67756 51.7065 9.01278C51.5403 9.34801 51.3123 9.60653 51.0225 9.78835C50.7328 9.97017 50.4018 10.0611 50.0297 10.0611C49.6575 10.0611 49.3265 9.97017 49.0368 9.78835C48.747 9.60653 48.519 9.34801 48.3528 9.01278C48.1866 8.67756 48.1035 8.27983 48.1035 7.8196C48.1035 7.35938 48.1866 6.96165 48.3528 6.62642C48.519 6.29119 48.747 6.03267 49.0368 5.85085C49.3265 5.66903 49.6575 5.57812 50.0297 5.57812C50.4018 5.57812 50.7328 5.66903 51.0225 5.85085C51.3123 6.03267 51.5403 6.29119 51.7065 6.62642C51.8727 6.96165 51.9558 7.35938 51.9558 7.8196ZM51.4444 7.8196C51.4444 7.44176 51.3812 7.12287 51.2548 6.86293C51.1298 6.60298 50.96 6.40625 50.7456 6.27273C50.5325 6.1392 50.2939 6.07244 50.0297 6.07244C49.7654 6.07244 49.5261 6.1392 49.3116 6.27273C49.0985 6.40625 48.9288 6.60298 48.8024 6.86293C48.6774 7.12287 48.6149 7.44176 48.6149 7.8196C48.6149 8.19744 48.6774 8.51634 48.8024 8.77628C48.9288 9.03622 49.0985 9.23295 49.3116 9.36648C49.5261 9.5 49.7654 9.56676 50.0297 9.56676C50.2939 9.56676 50.5325 9.5 50.7456 9.36648C50.96 9.23295 51.1298 9.03622 51.2548 8.77628C51.3812 8.51634 51.4444 8.19744 51.4444 7.8196Z" fill="white"/>
<path d="M45.0688 10.0004V5.63672H45.5973V9.53161H47.6257V10.0004H45.0688Z" fill="white"/>
<path d="M41.6938 10.0004V5.63672H42.2223V9.53161H44.2507V10.0004H41.6938Z" fill="white"/>
<path d="M40.8054 7.8196C40.8054 8.27983 40.7223 8.67756 40.5561 9.01278C40.3899 9.34801 40.1619 9.60653 39.8722 9.78835C39.5824 9.97017 39.2514 10.0611 38.8793 10.0611C38.5071 10.0611 38.1761 9.97017 37.8864 9.78835C37.5966 9.60653 37.3686 9.34801 37.2024 9.01278C37.0362 8.67756 36.9531 8.27983 36.9531 7.8196C36.9531 7.35938 37.0362 6.96165 37.2024 6.62642C37.3686 6.29119 37.5966 6.03267 37.8864 5.85085C38.1761 5.66903 38.5071 5.57812 38.8793 5.57812C39.2514 5.57812 39.5824 5.66903 39.8722 5.85085C40.1619 6.03267 40.3899 6.29119 40.5561 6.62642C40.7223 6.96165 40.8054 7.35938 40.8054 7.8196ZM40.294 7.8196C40.294 7.44176 40.2308 7.12287 40.1044 6.86293C39.9794 6.60298 39.8097 6.40625 39.5952 6.27273C39.3821 6.1392 39.1435 6.07244 38.8793 6.07244C38.6151 6.07244 38.3757 6.1392 38.1612 6.27273C37.9482 6.40625 37.7784 6.60298 37.652 6.86293C37.527 7.12287 37.4645 7.44176 37.4645 7.8196C37.4645 8.19744 37.527 8.51634 37.652 8.77628C37.7784 9.03622 37.9482 9.23295 38.1612 9.36648C38.3757 9.5 38.6151 9.56676 38.8793 9.56676C39.1435 9.56676 39.3821 9.5 39.5952 9.36648C39.8097 9.23295 39.9794 9.03622 40.1044 8.77628C40.2308 8.51634 40.294 8.19744 40.294 7.8196Z" fill="white"/>
<path d="M33.6021 10.0004V5.63672H36.2185V6.10547H34.1305V7.5799H36.0225V8.04865H34.1305V10.0004H33.6021Z" fill="white"/>
<path d="M17.3237 1.91667V13.4167H3.95498C3.23623 13.4167 2.5654 13.6083 1.9904 13.9437V3.85729C1.9904 2.77917 2.8529 1.91667 3.93102 1.91667H17.3237ZM19.2404 0H3.93102C1.79873 0 0.0737305 1.725 0.0737305 3.85729V19.1427C0.0737305 21.275 1.79873 23 3.93102 23H23.0737V1.91667H21.1571V21.0833H3.95498C2.87686 21.0833 1.9904 20.1969 1.9904 19.1187V17.2979C1.9904 16.2198 2.87686 15.3333 3.95498 15.3333H19.2404V0ZM19.2404 17.25H3.90706V19.1667H19.2404V17.25Z" fill="white"/>
</svg>
