<svg width="83" height="23" viewBox="0 0 83 23" fill="none" xmlns="http://www.w3.org/2000/svg">
<path d="M23.2942 0.00235495C22.9855 0.0253618 22.6824 0.0995494 22.3969 0.222024H22.393C22.1189 0.333336 20.8158 0.894821 18.8345 1.74591L11.7348 4.80847C6.64039 7.00516 1.63251 9.16836 1.63251 9.16836L1.69213 9.14472C1.69213 9.14472 1.34686 9.26095 0.986203 9.51412C0.763391 9.65933 0.57166 9.84934 0.422613 10.0726C0.245649 10.3386 0.103308 10.7454 0.156205 11.1661C0.242764 11.8773 0.692867 12.3038 1.01602 12.5392C1.34302 12.7776 1.65463 12.8889 1.65463 12.8889H1.66232L6.35859 14.5094C6.56922 15.2019 7.78969 19.3115 8.08303 20.2582C8.25614 20.8236 8.42445 21.1773 8.63508 21.4472C8.73702 21.5851 8.85628 21.7003 8.99958 21.7929C9.07408 21.8373 9.15351 21.8724 9.23618 21.8973L9.18809 21.8855C9.20251 21.8895 9.21406 21.9013 9.22463 21.9052C9.26311 21.9161 9.28907 21.92 9.33812 21.9279C10.0816 22.1584 10.6788 21.6855 10.6788 21.6855L10.7125 21.658L13.4852 19.0722L18.1325 22.7238L18.2382 22.7701C19.2067 23.2055 20.1877 22.9632 20.7061 22.5357C21.2284 22.1052 21.4313 21.5545 21.4313 21.5545L21.4649 21.4659L25.0562 2.62262C25.1581 2.15767 25.1841 1.72227 25.0715 1.29968C24.9555 0.871993 24.6876 0.504153 24.3204 0.268321C24.0121 0.0763477 23.6546 -0.0163134 23.2942 0.00235495ZM23.1971 2.02173C23.1932 2.08379 23.2048 2.0769 23.1778 2.19609V2.20692L19.6203 20.8542C19.6049 20.8807 19.5789 20.9389 19.5078 20.997C19.4327 21.0581 19.3731 21.0965 19.0605 20.9694L13.3766 16.5061L9.94307 19.7115L10.6644 14.993L19.9511 6.12747C20.3339 5.763 20.206 5.68616 20.206 5.68616C20.2329 5.23895 19.628 5.55515 19.628 5.55515L7.9176 12.9855L7.91376 12.9658L2.30093 11.0301V11.0262L2.2865 11.0232C2.29634 11.0199 2.30598 11.0159 2.31536 11.0114L2.34613 10.9956L2.37595 10.9848C2.37595 10.9848 7.38767 8.82162 12.4821 6.62493C15.0327 5.52461 17.6025 4.41642 19.5789 3.56138C21.5554 2.71128 23.0163 2.08773 23.099 2.05424C23.1778 2.02272 23.1403 2.02272 23.1971 2.02272V2.02173Z" fill="white"/>
<path d="M74.6768 21.5596V14.2148H76.3556L78.3072 21.0035H78.4436L80.3952 14.2148H82.074V21.5596H81.2241V14.7919H81.0772L79.1361 21.5596H77.6147L75.6735 14.7919H75.5267V21.5596H74.6768Z" fill="white"/>
<path d="M67.4907 21.5596L69.7571 14.2148H71.31L73.5764 21.5596H72.6635L72.0969 19.7024H68.9702L68.4036 21.5596H67.4907ZM69.1905 18.905H71.8661L70.607 14.75H70.4601L69.1905 18.905Z" fill="white"/>
<path d="M61.4482 21.5596V14.2148H64.4176C64.8723 14.2148 65.271 14.2953 65.6138 14.4562C65.9635 14.6101 66.2363 14.8339 66.4322 15.1277C66.628 15.4145 66.726 15.7607 66.726 16.1665V16.2819C66.726 16.7645 66.6106 17.1458 66.3797 17.4256C66.1489 17.7054 65.8761 17.8942 65.5613 17.9921V18.139C65.8131 18.146 66.0195 18.23 66.1804 18.3909C66.3482 18.5448 66.4322 18.7791 66.4322 19.0939V21.5596H65.5613V19.1988C65.5613 18.9889 65.5019 18.8281 65.3829 18.7161C65.271 18.6042 65.0996 18.5483 64.8688 18.5483H62.3296V21.5596H61.4482ZM62.3296 17.7508H64.3337C64.8163 17.7508 65.1871 17.6354 65.4459 17.4046C65.7117 17.1667 65.8446 16.838 65.8446 16.4183V16.3448C65.8446 15.9251 65.7152 15.5999 65.4564 15.369C65.1976 15.1312 64.8233 15.0123 64.3337 15.0123H62.3296V17.7508Z" fill="white"/>
<path d="M57.0815 21.705C56.5359 21.705 56.0533 21.593 55.6336 21.3692C55.2209 21.1384 54.8956 20.8026 54.6578 20.3619C54.4269 19.9212 54.3115 19.3756 54.3115 18.7251V17.0463C54.3115 16.074 54.5703 15.336 55.088 14.8324C55.6056 14.3217 56.3016 14.0664 57.176 14.0664C58.0434 14.0664 58.7044 14.3042 59.1591 14.7799C59.6137 15.2556 59.8411 15.8921 59.8411 16.6895V16.742H58.9702V16.6686C58.9702 16.3188 58.9072 16.0075 58.7813 15.7347C58.6554 15.4619 58.4596 15.2486 58.1938 15.0947C57.9279 14.9338 57.5887 14.8533 57.176 14.8533C56.5534 14.8533 56.0673 15.0457 55.7175 15.4304C55.3678 15.8082 55.1929 16.3398 55.1929 17.0253V18.7461C55.1929 19.4316 55.3678 19.9667 55.7175 20.3514C56.0673 20.7292 56.5569 20.918 57.1865 20.918C57.802 20.918 58.2532 20.7431 58.54 20.3934C58.8338 20.0436 58.9807 19.5785 58.9807 18.9979V18.8195H56.7563V18.0641H59.8411V21.5581H59.0436V20.7606H58.8968C58.8198 20.9145 58.7114 21.0649 58.5715 21.2118C58.4316 21.3587 58.2427 21.4776 58.0049 21.5686C57.7671 21.6595 57.4593 21.705 57.0815 21.705Z" fill="white"/>
<path d="M48.6094 21.5596V14.2148H53.1316V15.0123H49.4907V17.4675H52.8379V18.265H49.4907V20.7622H53.1841V21.5596H48.6094Z" fill="white"/>
<path d="M42.8813 21.5596V14.2148H43.7627V20.7622H47.4771V21.5596H42.8813Z" fill="white"/>
<path d="M36.9692 21.5596V14.2148H41.4915V15.0123H37.8506V17.4675H41.1977V18.265H37.8506V20.7622H41.544V21.5596H36.9692Z" fill="white"/>
<path d="M32.6054 21.5596V15.0123H30.2446V14.2148H35.8476V15.0123H33.4868V21.5596H32.6054Z" fill="white"/>
<path d="M75.2898 5.63672V10.0004H74.7785L72.4006 6.57422H72.358V10.0004H71.8296V5.63672H72.341L74.7273 9.07138H74.7699V5.63672H75.2898Z" fill="white"/>
<path d="M70.9411 7.8196C70.9411 8.27983 70.858 8.67756 70.6918 9.01278C70.5257 9.34801 70.2977 9.60653 70.0079 9.78835C69.7181 9.97017 69.3872 10.0611 69.015 10.0611C68.6428 10.0611 68.3119 9.97017 68.0221 9.78835C67.7323 9.60653 67.5043 9.34801 67.3382 9.01278C67.172 8.67756 67.0889 8.27983 67.0889 7.8196C67.0889 7.35938 67.172 6.96165 67.3382 6.62642C67.5043 6.29119 67.7323 6.03267 68.0221 5.85085C68.3119 5.66903 68.6428 5.57812 69.015 5.57812C69.3872 5.57812 69.7181 5.66903 70.0079 5.85085C70.2977 6.03267 70.5257 6.29119 70.6918 6.62642C70.858 6.96165 70.9411 7.35938 70.9411 7.8196ZM70.4298 7.8196C70.4298 7.44176 70.3666 7.12287 70.2401 6.86293C70.1151 6.60298 69.9454 6.40625 69.7309 6.27273C69.5178 6.1392 69.2792 6.07244 69.015 6.07244C68.7508 6.07244 68.5115 6.1392 68.297 6.27273C68.0839 6.40625 67.9142 6.60298 67.7877 6.86293C67.6627 7.12287 67.6002 7.44176 67.6002 7.8196C67.6002 8.19744 67.6627 8.51634 67.7877 8.77628C67.9142 9.03622 68.0839 9.23295 68.297 9.36648C68.5115 9.5 68.7508 9.56676 69.015 9.56676C69.2792 9.56676 69.5178 9.5 69.7309 9.36648C69.9454 9.23295 70.1151 9.03622 70.2401 8.77628C70.3666 8.51634 70.4298 8.19744 70.4298 7.8196Z" fill="white"/>
<path d="M64.132 6.72869C64.1064 6.51278 64.0027 6.34517 63.8209 6.22585C63.6391 6.10653 63.4161 6.04688 63.1519 6.04688C62.9587 6.04688 62.7896 6.07813 62.6448 6.14063C62.5013 6.20313 62.3891 6.28906 62.3081 6.39844C62.2286 6.50781 62.1888 6.6321 62.1888 6.77131C62.1888 6.88778 62.2165 6.98793 62.2719 7.07173C62.3287 7.15412 62.4011 7.22301 62.4892 7.27841C62.5773 7.33239 62.6696 7.37713 62.7662 7.41264C62.8628 7.44673 62.9516 7.47443 63.0325 7.49574L63.4757 7.61506C63.5894 7.64489 63.7158 7.68608 63.855 7.73864C63.9956 7.79119 64.1298 7.86293 64.2577 7.95384C64.3869 8.04332 64.4935 8.15838 64.5773 8.29901C64.6611 8.43963 64.703 8.61222 64.703 8.81676C64.703 9.05256 64.6412 9.26562 64.5176 9.45597C64.3955 9.64631 64.2165 9.79759 63.9807 9.9098C63.7463 10.022 63.4615 10.0781 63.1263 10.0781C62.8138 10.0781 62.5432 10.0277 62.3145 9.92685C62.0872 9.82599 61.9082 9.68537 61.7776 9.50497C61.6483 9.32457 61.5752 9.11506 61.5581 8.87642H62.1036C62.1178 9.04119 62.1732 9.17756 62.2698 9.28551C62.3678 9.39205 62.4913 9.47159 62.6405 9.52415C62.7911 9.57528 62.953 9.60085 63.1263 9.60085C63.328 9.60085 63.5091 9.56818 63.6696 9.50284C63.8301 9.43608 63.9573 9.34375 64.051 9.22585C64.1448 9.10653 64.1916 8.96733 64.1916 8.80824C64.1916 8.66335 64.1511 8.54545 64.0702 8.45455C63.9892 8.36364 63.8827 8.28977 63.7506 8.23295C63.6185 8.17614 63.4757 8.12642 63.3223 8.08381L62.7854 7.9304C62.4445 7.83239 62.1746 7.69247 61.9757 7.51065C61.7769 7.32884 61.6774 7.09091 61.6774 6.79688C61.6774 6.55256 61.7435 6.33949 61.8756 6.15767C62.0091 5.97443 62.1881 5.83239 62.4125 5.73153C62.6384 5.62926 62.8905 5.57812 63.1689 5.57812C63.4502 5.57812 63.7002 5.62855 63.9189 5.7294C64.1377 5.82884 64.3109 5.9652 64.4388 6.13849C64.568 6.31179 64.6362 6.50852 64.6433 6.72869H64.132Z" fill="white"/>
<path d="M60.162 5.63672H60.6904V8.52592C60.6904 8.82422 60.6201 9.09055 60.4794 9.32493C60.3402 9.55788 60.1435 9.74183 59.8892 9.87678C59.635 10.0103 59.3367 10.0771 58.9944 10.0771C58.652 10.0771 58.3537 10.0103 58.0995 9.87678C57.8452 9.74183 57.6478 9.55788 57.5071 9.32493C57.3679 9.09055 57.2983 8.82422 57.2983 8.52592V5.63672H57.8267V8.48331C57.8267 8.69638 57.8736 8.88601 57.9674 9.0522C58.0611 9.21697 58.1946 9.34695 58.3679 9.44212C58.5427 9.53587 58.7515 9.58274 58.9944 9.58274C59.2373 9.58274 59.4461 9.53587 59.6208 9.44212C59.7955 9.34695 59.929 9.21697 60.0214 9.0522C60.1151 8.88601 60.162 8.69638 60.162 8.48331V5.63672Z" fill="white"/>
<path d="M50.7083 10.0004L49.5151 5.63672H50.0521L50.964 9.1907H51.0066L51.9356 5.63672H52.5322L53.4612 9.1907H53.5038L54.4157 5.63672H54.9526L53.7595 10.0004H53.214L52.2509 6.52308H52.2168L51.2538 10.0004H50.7083Z" fill="white"/>
<path d="M49.0271 7.8196C49.0271 8.27983 48.944 8.67756 48.7778 9.01278C48.6116 9.34801 48.3836 9.60653 48.0938 9.78835C47.8041 9.97017 47.4731 10.0611 47.1009 10.0611C46.7288 10.0611 46.3978 9.97017 46.108 9.78835C45.8183 9.60653 45.5903 9.34801 45.4241 9.01278C45.2579 8.67756 45.1748 8.27983 45.1748 7.8196C45.1748 7.35938 45.2579 6.96165 45.4241 6.62642C45.5903 6.29119 45.8183 6.03267 46.108 5.85085C46.3978 5.66903 46.7288 5.57812 47.1009 5.57812C47.4731 5.57812 47.8041 5.66903 48.0938 5.85085C48.3836 6.03267 48.6116 6.29119 48.7778 6.62642C48.944 6.96165 49.0271 7.35938 49.0271 7.8196ZM48.5157 7.8196C48.5157 7.44176 48.4525 7.12287 48.3261 6.86293C48.2011 6.60298 48.0313 6.40625 47.8168 6.27273C47.6038 6.1392 47.3651 6.07244 47.1009 6.07244C46.8367 6.07244 46.5974 6.1392 46.3829 6.27273C46.1698 6.40625 46.0001 6.60298 45.8737 6.86293C45.7487 7.12287 45.6862 7.44176 45.6862 7.8196C45.6862 8.19744 45.7487 8.51634 45.8737 8.77628C46.0001 9.03622 46.1698 9.23295 46.3829 9.36648C46.5974 9.5 46.8367 9.56676 47.1009 9.56676C47.3651 9.56676 47.6038 9.5 47.8168 9.36648C48.0313 9.23295 48.2011 9.03622 48.3261 8.77628C48.4525 8.51634 48.5157 8.19744 48.5157 7.8196Z" fill="white"/>
<path d="M42.1401 10.0004V5.63672H42.6685V9.53161H44.697V10.0004H42.1401Z" fill="white"/>
<path d="M38.7651 10.0004V5.63672H39.2935V9.53161H41.322V10.0004H38.7651Z" fill="white"/>
<path d="M37.8767 7.8196C37.8767 8.27983 37.7936 8.67756 37.6274 9.01278C37.4612 9.34801 37.2332 9.60653 36.9434 9.78835C36.6537 9.97017 36.3227 10.0611 35.9506 10.0611C35.5784 10.0611 35.2474 9.97017 34.9577 9.78835C34.6679 9.60653 34.4399 9.34801 34.2737 9.01278C34.1075 8.67756 34.0244 8.27983 34.0244 7.8196C34.0244 7.35938 34.1075 6.96165 34.2737 6.62642C34.4399 6.29119 34.6679 6.03267 34.9577 5.85085C35.2474 5.66903 35.5784 5.57812 35.9506 5.57812C36.3227 5.57812 36.6537 5.66903 36.9434 5.85085C37.2332 6.03267 37.4612 6.29119 37.6274 6.62642C37.7936 6.96165 37.8767 7.35938 37.8767 7.8196ZM37.3653 7.8196C37.3653 7.44176 37.3021 7.12287 37.1757 6.86293C37.0507 6.60298 36.8809 6.40625 36.6665 6.27273C36.4534 6.1392 36.2148 6.07244 35.9506 6.07244C35.6863 6.07244 35.447 6.1392 35.2325 6.27273C35.0194 6.40625 34.8497 6.60298 34.7233 6.86293C34.5983 7.12287 34.5358 7.44176 34.5358 7.8196C34.5358 8.19744 34.5983 8.51634 34.7233 8.77628C34.8497 9.03622 35.0194 9.23295 35.2325 9.36648C35.447 9.5 35.6863 9.56676 35.9506 9.56676C36.2148 9.56676 36.4534 9.5 36.6665 9.36648C36.8809 9.23295 37.0507 9.03622 37.1757 8.77628C37.3021 8.51634 37.3653 8.19744 37.3653 7.8196Z" fill="white"/>
<path d="M30.6733 10.0004V5.63672H33.2898V6.10547H31.2017V7.5799H33.0938V8.04865H31.2017V10.0004H30.6733Z" fill="white"/>
</svg>
