<svg width="76" height="21" viewBox="0 0 76 21" fill="none" xmlns="http://www.w3.org/2000/svg">
<path d="M4.67373 20.5H1.30024L8.67028 12.0282L0 0.5H6.78876L12.106 7.4918L18.1901 0.5H21.5656L13.6826 9.56154L22 20.5H15.0389L10.2326 14.1092L4.67373 20.5ZM5.85769 2.53077H3.9884L16.0546 18.5759H18.0606L5.85769 2.53077Z" fill="white"/>
<path d="M66.2959 20.0596V12.7148H69.2653C69.72 12.7148 70.1187 12.7953 70.4614 12.9562C70.8112 13.1101 71.084 13.3339 71.2798 13.6277C71.4757 13.9145 71.5736 14.2607 71.5736 14.6665V14.7819C71.5736 15.2645 71.4582 15.6458 71.2274 15.9256C70.9965 16.2054 70.7237 16.3942 70.409 16.4921V16.639C70.6608 16.646 70.8671 16.73 71.028 16.8909C71.1959 17.0448 71.2798 17.2791 71.2798 17.5939V20.0596H70.409V17.6988C70.409 17.4889 70.3495 17.3281 70.2306 17.2161C70.1187 17.1042 69.9473 17.0483 69.7165 17.0483H67.1773V20.0596H66.2959ZM67.1773 16.2508H69.1813C69.664 16.2508 70.0347 16.1354 70.2935 15.9046C70.5594 15.6667 70.6923 15.338 70.6923 14.9183V14.8448C70.6923 14.4251 70.5629 14.0999 70.304 13.869C70.0452 13.6312 69.671 13.5123 69.1813 13.5123H67.1773V16.2508Z" fill="white"/>
<path d="M60.3838 20.0596V12.7148H64.9061V13.5123H61.2652V15.9675H64.6123V16.765H61.2652V19.2622H64.9585V20.0596H60.3838Z" fill="white"/>
<path d="M56.02 20.0596V13.5123H53.6592V12.7148H59.2622V13.5123H56.9014V20.0596H56.02Z" fill="white"/>
<path d="M49.8515 20.0596V13.5123H47.4907V12.7148H53.0937V13.5123H50.7329V20.0596H49.8515Z" fill="white"/>
<path d="M45.4849 20.0596V12.7148H46.3662V20.0596H45.4849Z" fill="white"/>
<path d="M37.0492 20.0596L35.853 12.7148H36.7344L37.7732 19.493H37.9201L39.2736 12.7148H40.8475L42.1905 19.493H42.3374L43.3762 12.7148H44.2575L43.0614 20.0596H41.4875L40.134 13.2395H39.9871L38.6335 20.0596H37.0492Z" fill="white"/>
<path d="M31.9404 20.0596V13.5123H29.5796V12.7148H35.1826V13.5123H32.8218V20.0596H31.9404Z" fill="white"/>
<path d="M75.1448 4.13672V8.50036H74.6334L72.2556 5.07422H72.213V8.50036H71.6846V4.13672H72.1959L74.5823 7.57138H74.6249V4.13672H75.1448Z" fill="white"/>
<path d="M70.7961 6.3196C70.7961 6.77983 70.713 7.17756 70.5468 7.51278C70.3806 7.84801 70.1527 8.10653 69.8629 8.28835C69.5731 8.47017 69.2421 8.56108 68.87 8.56108C68.4978 8.56108 68.1669 8.47017 67.8771 8.28835C67.5873 8.10653 67.3593 7.84801 67.1931 7.51278C67.0269 7.17756 66.9438 6.77983 66.9438 6.3196C66.9438 5.85938 67.0269 5.46165 67.1931 5.12642C67.3593 4.79119 67.5873 4.53267 67.8771 4.35085C68.1669 4.16903 68.4978 4.07812 68.87 4.07812C69.2421 4.07812 69.5731 4.16903 69.8629 4.35085C70.1527 4.53267 70.3806 4.79119 70.5468 5.12642C70.713 5.46165 70.7961 5.85938 70.7961 6.3196ZM70.2848 6.3196C70.2848 5.94176 70.2215 5.62287 70.0951 5.36293C69.9701 5.10298 69.8004 4.90625 69.5859 4.77273C69.3728 4.6392 69.1342 4.57244 68.87 4.57244C68.6058 4.57244 68.3664 4.6392 68.1519 4.77273C67.9389 4.90625 67.7691 5.10298 67.6427 5.36293C67.5177 5.62287 67.4552 5.94176 67.4552 6.3196C67.4552 6.69744 67.5177 7.01634 67.6427 7.27628C67.7691 7.53622 67.9389 7.73295 68.1519 7.86648C68.3664 8 68.6058 8.06676 68.87 8.06676C69.1342 8.06676 69.3728 8 69.5859 7.86648C69.8004 7.73295 69.9701 7.53622 70.0951 7.27628C70.2215 7.01634 70.2848 6.69744 70.2848 6.3196Z" fill="white"/>
<path d="M63.9869 5.22869C63.9614 5.01278 63.8577 4.84517 63.6759 4.72585C63.4941 4.60653 63.271 4.54688 63.0068 4.54688C62.8137 4.54688 62.6446 4.57813 62.4997 4.64063C62.3563 4.70313 62.244 4.78906 62.1631 4.89844C62.0835 5.00781 62.0438 5.1321 62.0438 5.27131C62.0438 5.38778 62.0715 5.48793 62.1269 5.57173C62.1837 5.65412 62.2561 5.72301 62.3442 5.77841C62.4323 5.83239 62.5246 5.87713 62.6212 5.91264C62.7178 5.94673 62.8066 5.97443 62.8875 5.99574L63.3307 6.11506C63.4443 6.14489 63.5708 6.18608 63.71 6.23864C63.8506 6.29119 63.9848 6.36293 64.1127 6.45384C64.2419 6.54332 64.3485 6.65838 64.4323 6.79901C64.5161 6.93963 64.558 7.11222 64.558 7.31676C64.558 7.55256 64.4962 7.76562 64.3726 7.95597C64.2504 8.14631 64.0715 8.29759 63.8357 8.4098C63.6013 8.52202 63.3165 8.57812 62.9813 8.57812C62.6688 8.57812 62.3982 8.5277 62.1695 8.42685C61.9422 8.32599 61.7632 8.18537 61.6325 8.00497C61.5033 7.82457 61.4301 7.61506 61.4131 7.37642H61.9585C61.9727 7.54119 62.0281 7.67756 62.1247 7.78551C62.2227 7.89205 62.3463 7.97159 62.4955 8.02415C62.646 8.07528 62.808 8.10085 62.9813 8.10085C63.183 8.10085 63.3641 8.06818 63.5246 8.00284C63.6851 7.93608 63.8122 7.84375 63.906 7.72585C63.9997 7.60653 64.0466 7.46733 64.0466 7.30824C64.0466 7.16335 64.0061 7.04545 63.9252 6.95455C63.8442 6.86364 63.7377 6.78977 63.6056 6.73295C63.4735 6.67614 63.3307 6.62642 63.1773 6.58381L62.6404 6.4304C62.2994 6.33239 62.0296 6.19247 61.8307 6.01065C61.6318 5.82884 61.5324 5.59091 61.5324 5.29688C61.5324 5.05256 61.5985 4.83949 61.7306 4.65767C61.8641 4.47443 62.0431 4.33239 62.2675 4.23153C62.4933 4.12926 62.7455 4.07812 63.0239 4.07812C63.3051 4.07812 63.5551 4.12855 63.7739 4.2294C63.9926 4.32884 64.1659 4.4652 64.2938 4.63849C64.423 4.81179 64.4912 5.00852 64.4983 5.22869H63.9869Z" fill="white"/>
<path d="M60.017 4.13672H60.5454V7.02592C60.5454 7.32422 60.4751 7.59055 60.3344 7.82493C60.1952 8.05788 59.9985 8.24183 59.7442 8.37678C59.49 8.5103 59.1917 8.57706 58.8493 8.57706C58.507 8.57706 58.2087 8.5103 57.9545 8.37678C57.7002 8.24183 57.5028 8.05788 57.3621 7.82493C57.2229 7.59055 57.1533 7.32422 57.1533 7.02592V4.13672H57.6817V6.98331C57.6817 7.19638 57.7286 7.38601 57.8224 7.5522C57.9161 7.71697 58.0496 7.84695 58.2229 7.94212C58.3976 8.03587 58.6064 8.08274 58.8493 8.08274C59.0922 8.08274 59.301 8.03587 59.4758 7.94212C59.6505 7.84695 59.784 7.71697 59.8763 7.5522C59.9701 7.38601 60.017 7.19638 60.017 6.98331V4.13672Z" fill="white"/>
<path d="M50.5633 8.50036L49.3701 4.13672H49.907L50.819 7.6907H50.8616L51.7906 4.13672H52.3872L53.3161 7.6907H53.3588L54.2707 4.13672H54.8076L53.6144 8.50036H53.069L52.1059 5.02308H52.0718L51.1088 8.50036H50.5633Z" fill="white"/>
<path d="M48.8821 6.3196C48.8821 6.77983 48.799 7.17756 48.6328 7.51278C48.4666 7.84801 48.2386 8.10653 47.9488 8.28835C47.659 8.47017 47.3281 8.56108 46.9559 8.56108C46.5838 8.56108 46.2528 8.47017 45.963 8.28835C45.6733 8.10653 45.4453 7.84801 45.2791 7.51278C45.1129 7.17756 45.0298 6.77983 45.0298 6.3196C45.0298 5.85938 45.1129 5.46165 45.2791 5.12642C45.4453 4.79119 45.6733 4.53267 45.963 4.35085C46.2528 4.16903 46.5838 4.07812 46.9559 4.07812C47.3281 4.07812 47.659 4.16903 47.9488 4.35085C48.2386 4.53267 48.4666 4.79119 48.6328 5.12642C48.799 5.46165 48.8821 5.85938 48.8821 6.3196ZM48.3707 6.3196C48.3707 5.94176 48.3075 5.62287 48.1811 5.36293C48.0561 5.10298 47.8863 4.90625 47.6718 4.77273C47.4588 4.6392 47.2201 4.57244 46.9559 4.57244C46.6917 4.57244 46.4524 4.6392 46.2379 4.77273C46.0248 4.90625 45.8551 5.10298 45.7286 5.36293C45.6036 5.62287 45.5411 5.94176 45.5411 6.3196C45.5411 6.69744 45.6036 7.01634 45.7286 7.27628C45.8551 7.53622 46.0248 7.73295 46.2379 7.86648C46.4524 8 46.6917 8.06676 46.9559 8.06676C47.2201 8.06676 47.4588 8 47.6718 7.86648C47.8863 7.73295 48.0561 7.53622 48.1811 7.27628C48.3075 7.01634 48.3707 6.69744 48.3707 6.3196Z" fill="white"/>
<path d="M41.9951 8.50036V4.13672H42.5235V8.03161H44.5519V8.50036H41.9951Z" fill="white"/>
<path d="M38.6201 8.50036V4.13672H39.1485V8.03161H41.1769V8.50036H38.6201Z" fill="white"/>
<path d="M37.7317 6.3196C37.7317 6.77983 37.6486 7.17756 37.4824 7.51278C37.3162 7.84801 37.0882 8.10653 36.7984 8.28835C36.5087 8.47017 36.1777 8.56108 35.8055 8.56108C35.4334 8.56108 35.1024 8.47017 34.8126 8.28835C34.5229 8.10653 34.2949 7.84801 34.1287 7.51278C33.9625 7.17756 33.8794 6.77983 33.8794 6.3196C33.8794 5.85938 33.9625 5.46165 34.1287 5.12642C34.2949 4.79119 34.5229 4.53267 34.8126 4.35085C35.1024 4.16903 35.4334 4.07812 35.8055 4.07812C36.1777 4.07812 36.5087 4.16903 36.7984 4.35085C37.0882 4.53267 37.3162 4.79119 37.4824 5.12642C37.6486 5.46165 37.7317 5.85938 37.7317 6.3196ZM37.2203 6.3196C37.2203 5.94176 37.1571 5.62287 37.0307 5.36293C36.9057 5.10298 36.7359 4.90625 36.5214 4.77273C36.3084 4.6392 36.0697 4.57244 35.8055 4.57244C35.5413 4.57244 35.302 4.6392 35.0875 4.77273C34.8744 4.90625 34.7047 5.10298 34.5783 5.36293C34.4533 5.62287 34.3908 5.94176 34.3908 6.3196C34.3908 6.69744 34.4533 7.01634 34.5783 7.27628C34.7047 7.53622 34.8744 7.73295 35.0875 7.86648C35.302 8 35.5413 8.06676 35.8055 8.06676C36.0697 8.06676 36.3084 8 36.5214 7.86648C36.7359 7.73295 36.9057 7.53622 37.0307 7.27628C37.1571 7.01634 37.2203 6.69744 37.2203 6.3196Z" fill="white"/>
<path d="M30.5283 8.50036V4.13672H33.1448V4.60547H31.0567V6.0799H32.9488V6.54865H31.0567V8.50036H30.5283Z" fill="white"/>
</svg>
