<svg width="47" height="46" viewBox="0 0 47 46" fill="none" xmlns="http://www.w3.org/2000/svg">
<path d="M1.04084 41.4664C1.04084 43.8627 2.98345 45.8053 5.37977 45.8053H42.3662C44.7625 45.8053 46.7051 43.8627 46.7051 41.4664V4.48C46.7051 2.08368 44.7625 0.141075 42.3662 0.141075H5.37977C2.98345 0.141075 1.04084 2.08368 1.04084 4.48V41.4664Z" fill="#111827" fill-opacity="0.5"/>
<path d="M1.04084 41.4664C1.04084 43.8627 2.98345 45.8053 5.37977 45.8053H42.3662C44.7625 45.8053 46.7051 43.8627 46.7051 41.4664V4.48C46.7051 2.08368 44.7625 0.141075 42.3662 0.141075H5.37977C2.98345 0.141075 1.04084 2.08368 1.04084 4.48V41.4664Z" stroke="white" stroke-width="0.279931"/>
<rect x="11.4265" y="10.2966" width="24.2849" height="25.4055" rx="5.48769" stroke="white" stroke-width="0.577652"/>
<path d="M24.623 29.1445H22.1659L21.1891 26.6034H16.7174L15.7941 29.1445H13.3979L17.7552 17.9576H20.1437L24.623 29.1445ZM20.4642 24.7186L18.9227 20.5674L17.4118 24.7186H20.4642Z" fill="white"/>
<path d="M25.5397 22.1914V13.9215H31.6717V15.3205H27.2095V17.1539H31.3614V18.5472H27.2095V20.798H31.8296V22.1914H25.5397Z" fill="white"/>
<path d="M25.5849 33.4102V25.2079H27.2547V32.0168H31.4065V33.4102H25.5849Z" fill="white"/>
</svg>
