<svg width="46" height="46" viewBox="0 0 46 46" fill="none" xmlns="http://www.w3.org/2000/svg">
<path d="M0.139965 41.4664C0.139965 43.8627 2.08257 45.8053 4.47889 45.8053H41.4653C43.8616 45.8053 45.8042 43.8627 45.8042 41.4664V4.48C45.8042 2.08368 43.8616 0.141075 41.4653 0.141075H4.47889C2.08257 0.141075 0.139965 2.08368 0.139965 4.48V41.4664Z" fill="#111827" fill-opacity="0.5"/>
<path d="M0.139965 41.4664C0.139965 43.8627 2.08257 45.8053 4.47889 45.8053H41.4653C43.8616 45.8053 45.8042 43.8627 45.8042 41.4664V4.48C45.8042 2.08368 43.8616 0.141075 41.4653 0.141075H4.47889C2.08257 0.141075 0.139965 2.08368 0.139965 4.48V41.4664Z" stroke="white" stroke-width="0.279931"/>
<path d="M40.7656 24C40.7656 33.6305 32.9586 41.4375 23.3281 41.4375C13.6976 41.4375 5.89062 33.6305 5.89062 24C5.89062 14.3695 13.6976 6.5625 23.3281 6.5625C32.9586 6.5625 40.7656 14.3695 40.7656 24ZM30.8058 21.5159C31.1529 19.1956 29.3861 17.9483 26.9702 17.1162L27.7539 13.9731L25.8405 13.4963L25.0776 16.5566C24.5746 16.4312 24.0579 16.313 23.5445 16.1959L24.313 13.1155L22.4006 12.6387L21.6164 15.7807C21.2 15.6858 20.7913 15.5921 20.3946 15.4935L20.3968 15.4837L17.758 14.8249L17.249 16.8683C17.249 16.8683 18.6687 17.1936 18.6387 17.2137C19.4137 17.4071 19.5537 17.9199 19.5303 18.3264L18.6376 21.9071C18.691 21.9207 18.7602 21.9403 18.8365 21.9709C18.7727 21.955 18.7046 21.9376 18.6343 21.9207L17.383 26.9367C17.2881 27.1721 17.0478 27.5252 16.5061 27.3912C16.5252 27.4189 15.1153 27.044 15.1153 27.044L14.1654 29.2341L16.6555 29.8547C17.1187 29.9708 17.5727 30.0923 18.0195 30.2067L17.2277 33.3857L19.1389 33.8625L19.9231 30.7172C20.43 30.8546 20.9383 30.9865 21.448 31.1129L20.6664 34.2434L22.5799 34.7202L23.3717 31.5471C26.6345 32.1645 29.0881 31.9155 30.1207 28.9648C30.953 26.5889 30.0793 25.2184 28.3626 24.3248C29.6128 24.0366 30.5546 23.2144 30.8058 21.5159ZM26.434 27.6456C25.8426 30.0215 21.842 28.7371 20.5449 28.4151L21.5957 24.2034C22.8927 24.5271 27.0519 25.1679 26.434 27.6456ZM27.0258 21.4815C26.4863 23.6427 23.1564 22.5447 22.0763 22.2755L23.0289 18.4556C24.1091 18.7248 27.5877 19.2272 27.0258 21.4815Z" fill="white"/>
</svg>
