<svg width="24" height="23" viewBox="0 0 24 23" fill="none" xmlns="http://www.w3.org/2000/svg">
<path d="M18.0664 1.91667V13.4167H4.69766C3.97891 13.4167 3.30807 13.6083 2.73307 13.9437V3.85729C2.73307 2.77917 3.59557 1.91667 4.6737 1.91667H18.0664ZM19.9831 0H4.6737C2.54141 0 0.816406 1.725 0.816406 3.85729V19.1427C0.816406 21.275 2.54141 23 4.6737 23H23.8164V1.91667H21.8997V21.0833H4.69766C3.61953 21.0833 2.73307 20.1969 2.73307 19.1188V17.2979C2.73307 16.2198 3.61953 15.3333 4.69766 15.3333H19.9831V0ZM19.9831 17.25H4.64974V19.1667H19.9831V17.25Z" fill="white"/>
</svg>
