<svg width="47" height="46" viewBox="0 0 47 46" fill="none" xmlns="http://www.w3.org/2000/svg">
<path d="M0.590161 41.4664C0.590161 43.8627 2.53276 45.8053 4.92909 45.8053H41.9155C44.3118 45.8053 46.2544 43.8627 46.2544 41.4664V4.48C46.2544 2.08368 44.3118 0.141075 41.9155 0.141075H4.92909C2.53276 0.141075 0.590161 2.08368 0.590161 4.48V41.4664Z" fill="#111827" fill-opacity="0.5"/>
<path d="M0.590161 41.4664C0.590161 43.8627 2.53276 45.8053 4.92909 45.8053H41.9155C44.3118 45.8053 46.2544 43.8627 46.2544 41.4664V4.48C46.2544 2.08368 44.3118 0.141075 41.9155 0.141075H4.92909C2.53276 0.141075 0.590161 2.08368 0.590161 4.48V41.4664Z" stroke="white" stroke-width="0.279931"/>
<path d="M23.9747 37.9968C15.7848 38.0854 8.97301 31.2199 9.00254 22.9458C9.02222 14.9968 15.5682 7.82592 24.3488 8.00322C32.4008 8.17067 39.1831 14.8096 38.9961 23.3891C38.8091 31.6041 31.9776 38.1051 23.9747 37.9968ZM24.6638 32.067C25.2248 31.9587 26.3962 31.8405 27.4889 31.4957C33.4147 29.6242 36.7025 23.2512 34.9405 17.1343C33.0407 10.5544 25.717 7.10686 19.5648 9.90429C14.5347 12.1895 11.808 17.8336 13.1172 23.2019C14.3968 28.4028 18.856 32.0079 24.6638 32.067Z" fill="white"/>
<path d="M34.3104 19.4086C34.2218 24.0874 31.0128 28.0175 26.3075 29.1109C21.7598 30.1649 16.9167 27.9486 14.8299 23.851C11.9358 18.1675 15.135 11.3413 21.4349 9.77517C26.9474 8.39616 32.4696 11.5679 33.9167 16.9559C34.1332 17.7439 34.1824 18.5812 34.3104 19.4086ZM23.7482 25.2595C24.1124 25.2595 24.4668 25.2989 24.8211 25.2497C25.2444 25.2004 25.6578 25.1019 26.0614 24.9837C30.0481 23.8116 32.3909 19.8124 31.3376 15.9906C30.117 11.5482 25.1657 9.18417 20.7656 10.9375C17.2612 12.3362 15.322 15.8921 16.1391 19.4677C16.9659 23.063 20.4013 25.3974 23.7482 25.2595Z" fill="white"/>
<path d="M29.9796 17.3805C29.9107 19.4983 29.1232 21.2417 27.4695 22.5616C24.9791 24.5317 21.4747 24.1377 19.3977 21.685C17.2321 19.124 17.3404 15.115 19.693 12.7313C21.2483 11.1552 23.1481 10.5741 25.2941 11.1158C27.5975 11.697 29.0051 13.2632 29.6745 15.509C29.8418 16.1098 29.8812 16.7501 29.9796 17.3805ZM23.7781 18.2079C25.609 18.2079 27.1545 16.6516 27.1545 14.8293C27.1545 13.0169 25.5795 11.4606 23.7683 11.4606C21.9374 11.4606 20.3821 13.0169 20.3919 14.8392C20.4018 16.6811 21.9472 18.2079 23.7781 18.2079Z" fill="white"/>
</svg>
