<svg width="46" height="46" viewBox="0 0 46 46" fill="none" xmlns="http://www.w3.org/2000/svg">
<path d="M0.139965 41.4664C0.139965 43.8627 2.08257 45.8053 4.47889 45.8053H41.4653C43.8616 45.8053 45.8042 43.8627 45.8042 41.4664V4.48C45.8042 2.08368 43.8616 0.141075 41.4653 0.141075H4.47889C2.08257 0.141075 0.139965 2.08368 0.139965 4.48V41.4664Z" fill="#111827" fill-opacity="0.5"/>
<path d="M0.139965 41.4664C0.139965 43.8627 2.08257 45.8053 4.47889 45.8053H41.4653C43.8616 45.8053 45.8042 43.8627 45.8042 41.4664V4.48C45.8042 2.08368 43.8616 0.141075 41.4653 0.141075H4.47889C2.08257 0.141075 0.139965 2.08368 0.139965 4.48V41.4664Z" stroke="white" stroke-width="0.279931"/>
<path d="M42.3047 11.2661C41.9161 11.0757 41.7487 11.4386 41.5215 11.623C41.4437 11.6824 41.378 11.7597 41.3122 11.8311C40.7442 12.4377 40.0805 12.8363 39.2135 12.7886C37.9459 12.7172 36.8637 13.1158 35.907 14.0853C35.7037 12.8898 35.0281 12.176 33.9997 11.7181C33.4616 11.4801 32.9175 11.2422 32.5408 10.7247C32.2777 10.356 32.206 9.94562 32.0744 9.54114C31.9907 9.29731 31.907 9.04742 31.6259 9.00577C31.321 8.95824 31.2014 9.21388 31.0818 9.42814C30.6035 10.3025 30.4182 11.2661 30.4361 12.2415C30.4779 14.4363 31.4047 16.1849 33.2462 17.428C33.4555 17.5708 33.5093 17.7134 33.4436 17.9217C33.318 18.35 33.1685 18.7663 33.037 19.1945C32.9532 19.4682 32.8276 19.5277 32.5347 19.4086C31.5242 18.9864 30.6512 18.3618 29.8799 17.6065C28.5705 16.3396 27.3866 14.9419 25.9099 13.8474C25.5631 13.5916 25.2162 13.3538 24.8575 13.1277C23.3507 11.6646 25.0548 10.463 25.4494 10.3204C25.8619 10.1717 25.5929 9.66008 24.2595 9.66615C22.9262 9.67203 21.7065 10.1182 20.1519 10.7129C19.9247 10.8022 19.6855 10.8675 19.4404 10.9211C18.0293 10.6535 16.5644 10.5939 15.0337 10.7665C12.1518 11.0876 9.8499 12.4497 8.15781 14.7753C6.12495 17.5708 5.64664 20.7468 6.2326 24.0599C6.84846 27.5512 8.63018 30.4418 11.3687 32.7021C14.2088 35.0455 17.4794 36.1934 21.2103 35.9734C23.4764 35.8425 25.9996 35.5392 28.8457 33.1304C29.5631 33.4873 30.3165 33.6299 31.5662 33.737C32.5288 33.8262 33.4556 33.6894 34.1731 33.5408C35.2972 33.3028 35.2195 32.2619 34.8129 32.0716C31.5184 30.5371 32.2418 31.1616 31.5842 30.656C33.2583 28.6754 35.7815 26.6174 36.7681 19.9498C36.8458 19.4205 36.78 19.0874 36.7681 18.6592C36.7621 18.3975 36.8219 18.2965 37.1209 18.2666C37.9459 18.1714 38.7471 17.9455 39.4826 17.541C41.6172 16.3753 42.4781 14.4601 42.6814 12.1642C42.7113 11.8132 42.6754 11.4504 42.3047 11.2661ZM23.7036 31.9288C20.5108 29.4189 18.9622 28.5921 18.3224 28.6278C17.7245 28.6635 17.8322 29.3475 17.9636 29.7936C18.1012 30.2337 18.2806 30.5371 18.5316 30.9237C18.705 31.1794 18.8247 31.56 18.3583 31.8456C17.3299 32.4821 15.5421 31.6314 15.4583 31.5899C13.3777 30.3645 11.6378 28.7467 10.412 26.5342C9.22809 24.4047 8.54055 22.1209 8.4269 19.6822C8.397 19.0935 8.57038 18.8852 9.15635 18.7782C9.92765 18.6355 10.7229 18.6056 11.4942 18.7186C14.7529 19.1945 17.5272 20.6517 19.853 22.9595C21.1804 24.2739 22.1848 25.8443 23.2193 27.3788C24.3194 29.0084 25.5033 30.5609 27.01 31.8337C27.5421 32.2798 27.9667 32.6188 28.3732 32.8687C27.1476 33.0054 25.1027 33.0353 23.7036 31.9288ZM25.2343 22.0852C25.2343 21.8235 25.4435 21.6153 25.7067 21.6153C25.7665 21.6153 25.8203 21.6271 25.8681 21.6449C25.9339 21.6688 25.9937 21.7045 26.0415 21.7579C26.1253 21.8413 26.1731 21.9602 26.1731 22.0851C26.1731 22.3468 25.9638 22.5549 25.7008 22.5549C25.4378 22.5549 25.2343 22.3469 25.2343 22.0852ZM29.9877 24.5238C29.6828 24.6488 29.3778 24.7557 29.0849 24.7676C28.6304 24.7914 28.1342 24.607 27.8652 24.381C27.4466 24.03 27.1476 23.8339 27.0221 23.2212C26.9683 22.9595 26.9982 22.555 27.0461 22.3231C27.1537 21.8235 27.0341 21.5023 26.6813 21.2108C26.3943 20.9729 26.0296 20.9075 25.6289 20.9075C25.4795 20.9075 25.342 20.842 25.2403 20.7885C25.0729 20.7053 24.9355 20.4971 25.0669 20.2413C25.1088 20.1581 25.3121 19.9558 25.36 19.9202C25.9041 19.6108 26.5319 19.712 27.1119 19.944C27.6501 20.164 28.0566 20.5685 28.6425 21.1395C29.2404 21.8293 29.348 22.0198 29.6888 22.5372C29.958 22.9417 30.2031 23.358 30.3705 23.8339C30.4722 24.1313 30.3405 24.3751 29.9877 24.5238Z" fill="white"/>
</svg>
