<svg xmlns="http://www.w3.org/2000/svg" width="47" height="46" viewBox="0 0 47 46" fill="none">
  <path d="M0.590161 41.4664C0.590161 43.8627 2.53276 45.8053 4.92909 45.8053H41.9155C44.3118 45.8053 46.2544 43.8627 46.2544 41.4664V4.48C46.2544 2.08368 44.3118 0.141075 41.9155 0.141075H4.92909C2.53276 0.141075 0.590161 2.08368 0.590161 4.48V41.4664Z" fill="#111827" fill-opacity="0.5"/>
  <path d="M0.590161 41.4664C0.590161 43.8627 2.53276 45.8053 4.92909 45.8053H41.9155C44.3118 45.8053 46.2544 43.8627 46.2544 41.4664V4.48C46.2544 2.08368 44.3118 0.141075 41.9155 0.141075H4.92909C2.53276 0.141075 0.590161 2.08368 0.590161 4.48V41.4664Z" stroke="white" stroke-width="0.279931"/>
  <path d="M34.6648 23.3375L23.9844 29.8625L13.2969 23.3375L23.9844 5L34.6648 23.3375ZM23.9844 31.9578L13.2969 25.4328L23.9844 41L34.6719 25.4328L23.9844 31.9578Z" fill="white"/>
</svg>