<svg xmlns="http://www.w3.org/2000/svg" width="47" height="46" viewBox="0 0 47 46" fill="none">
  <path d="M1.04084 41.4664C1.04084 43.8627 2.98345 45.8053 5.37977 45.8053H42.3662C44.7625 45.8053 46.7051 43.8627 46.7051 41.4664V4.48C46.7051 2.08368 44.7625 0.141075 42.3662 0.141075H5.37977C2.98345 0.141075 1.04084 2.08368 1.04084 4.48V41.4664Z" fill="#111827" fill-opacity="0.5"/>
  <path d="M1.04084 41.4664C1.04084 43.8627 2.98345 45.8053 5.37977 45.8053H42.3662C44.7625 45.8053 46.7051 43.8627 46.7051 41.4664V4.48C46.7051 2.08368 44.7625 0.141075 42.3662 0.141075H5.37977C2.98345 0.141075 1.04084 2.08368 1.04084 4.48V41.4664Z" stroke="white" stroke-width="0.279931"/>
  <path d="M26.703 30.1749C27.3535 30.0417 28.0207 29.9252 28.6546 29.7588C31.4402 29.0097 33.0581 27.2119 33.4751 24.3488C33.7754 22.3014 33.6086 20.3705 32.2408 18.6726C32.124 18.5228 32.1074 18.2065 32.1574 17.9901C32.4076 16.9414 32.3242 15.926 32.0573 14.9106C31.9239 14.3946 31.6236 14.1948 31.1566 14.3613C30.1558 14.7441 29.155 15.1436 28.1875 15.6097C27.8206 15.7928 27.5036 15.9094 27.0866 15.8095C24.8848 15.2768 22.6664 15.3101 20.4479 15.7762C20.131 15.8428 19.7307 15.7263 19.4138 15.6097C18.3963 15.2102 17.3955 14.7441 16.378 14.3613C15.9109 14.1782 15.6107 14.3946 15.4772 14.9106C15.2104 15.9593 15.1269 16.9913 15.3938 18.0567C15.4439 18.2731 15.3772 18.5893 15.227 18.7725C12.1579 22.9173 14.393 28.8266 19.4304 29.8919C19.8975 29.9918 20.3645 30.075 20.7648 30.1416C20.5146 30.7742 20.2811 31.4067 20.0142 32.0226C19.9642 32.1558 19.8141 32.2889 19.6806 32.3389C18.1461 33.0214 16.4947 32.522 15.594 31.0904C15.1603 30.4079 14.6432 29.8253 13.8759 29.5257C13.4089 29.3426 12.9252 29.2261 12.3914 29.6256C12.6082 29.842 12.7917 30.0251 12.9752 30.2082C13.509 30.8075 14.2429 31.3401 14.5098 32.0392C15.227 34.0035 17.0952 34.8025 19.3804 34.4363C19.5472 34.403 19.714 34.403 19.9475 34.3697C19.9475 35.4184 19.9976 36.4171 19.9308 37.4325C19.8975 37.9485 19.3304 38.115 18.6631 37.882C16.7783 37.2161 15.0769 36.2174 13.5757 34.9023C7.13715 29.3426 6.5033 19.3717 12.2413 13.1295C16.4447 8.56851 21.6989 6.95386 27.6871 8.51857C33.7587 10.1166 37.5451 14.1948 38.8795 20.3205C40.4975 27.678 36.2107 35.2519 29.1049 37.8154C28.9715 37.8653 28.838 37.9153 28.6879 37.9652C28.004 38.1317 27.587 37.832 27.587 37.1163C27.5704 36.0343 27.587 34.9523 27.587 33.8703C27.6037 31.8561 27.6037 31.8561 26.703 30.1749Z" fill="white"/>
</svg>