<svg width="1002" height="702" viewBox="0 0 1002 702" fill="none" xmlns="http://www.w3.org/2000/svg">
<rect x="0.75" y="433.395" width="612.559" height="201.777" rx="100.888" transform="rotate(-45 0.75 433.395)" fill="url(#paint0_linear_1046_3647)"/>
<rect x="684.75" y="559.242" width="246.416" height="201.777" rx="100.888" transform="rotate(-45 684.75 559.242)" fill="url(#paint1_linear_1046_3647)"/>
<rect x="467.25" y="282.418" width="369.348" height="201.777" rx="100.888" transform="rotate(-45 467.25 282.418)" fill="url(#paint2_linear_1046_3647)"/>
<rect x="375" y="472.168" width="369.348" height="201.777" rx="100.888" transform="rotate(-45 375 472.168)" fill="url(#paint3_linear_1046_3647)"/>
<rect x="95.25" y="442.562" width="263.841" height="201.777" rx="100.888" transform="rotate(-45 95.25 442.562)" fill="url(#paint4_linear_1046_3647)"/>
<defs>
<linearGradient id="paint0_linear_1046_3647" x1="662.085" y1="571.797" x2="146.074" y2="543.159" gradientUnits="userSpaceOnUse">
<stop stop-color="#0FF7FF"/>
<stop offset="1" stop-color="#24A3E2"/>
</linearGradient>
<linearGradient id="paint1_linear_1046_3647" x1="950.788" y1="697.645" x2="742.674" y2="692.998" gradientUnits="userSpaceOnUse">
<stop stop-color="#0FF7FF"/>
<stop offset="1" stop-color="#24A3E2"/>
</linearGradient>
<linearGradient id="paint2_linear_1046_3647" x1="866.009" y1="420.82" x2="554.265" y2="410.388" gradientUnits="userSpaceOnUse">
<stop stop-color="white"/>
<stop offset="1" stop-color="#FFFFFC"/>
</linearGradient>
<linearGradient id="paint3_linear_1046_3647" x1="773.759" y1="610.57" x2="462.015" y2="600.138" gradientUnits="userSpaceOnUse">
<stop stop-color="#02FF91"/>
<stop offset="1" stop-color="#0FF7FF"/>
</linearGradient>
<linearGradient id="paint4_linear_1046_3647" x1="380.1" y1="580.965" x2="157.287" y2="575.639" gradientUnits="userSpaceOnUse">
<stop stop-color="#FF00A1"/>
<stop offset="1" stop-color="#FF00A1"/>
</linearGradient>
</defs>
</svg>
