<svg width="151" height="57" viewBox="0 0 151 57" fill="none" xmlns="http://www.w3.org/2000/svg">
<rect x="0.75" width="150" height="57" rx="11.25" fill="white"/>
<path d="M42.5734 34.688C43.2127 34.5569 43.8684 34.4421 44.4913 34.2782C47.2289 33.5405 48.819 31.7702 49.2288 28.9506C49.5238 26.9343 49.3599 25.0328 48.0157 23.3608C47.901 23.2132 47.8846 22.9018 47.9338 22.6887C48.1797 21.6559 48.0977 20.656 47.8354 19.656C47.7043 19.1479 47.4092 18.9512 46.9502 19.1151C45.9667 19.4921 44.9831 19.8855 44.0323 20.3445C43.6717 20.5248 43.3602 20.6396 42.9504 20.5412C40.7866 20.0167 38.6064 20.0495 36.4262 20.5085C36.1147 20.574 35.7213 20.4593 35.4098 20.3445C34.4099 19.9511 33.4263 19.4921 32.4264 19.1151C31.9674 18.9348 31.6723 19.1479 31.5412 19.656C31.2789 20.6888 31.197 21.7051 31.4592 22.7542C31.5084 22.9673 31.4428 23.2788 31.2953 23.4591C28.2791 27.5409 30.4757 33.3602 35.4262 34.4094C35.8852 34.5077 36.3442 34.5897 36.7376 34.6552C36.4918 35.2782 36.2623 35.9011 36 36.5076C35.9508 36.6387 35.8033 36.7699 35.6721 36.8191C34.164 37.4912 32.5411 36.9994 31.6559 35.5896C31.2297 34.9175 30.7216 34.3438 29.9675 34.0487C29.5085 33.8684 29.0331 33.7537 28.5086 34.1471C28.7217 34.3602 28.902 34.5405 29.0823 34.7208C29.6069 35.3109 30.3281 35.8355 30.5904 36.524C31.2953 38.4583 33.1313 39.2452 35.3771 38.8845C35.541 38.8517 35.7049 38.8517 35.9344 38.819C35.9344 39.8517 35.9836 40.8352 35.918 41.8352C35.8852 42.3434 35.3279 42.5073 34.6722 42.2778C32.8198 41.6221 31.1478 40.6385 29.6724 39.3435C23.3449 33.8684 22.722 24.0492 28.361 17.902C32.492 13.4105 37.6556 11.8204 43.5406 13.3613C49.5075 14.935 53.2286 18.9512 54.54 24.9836C56.1301 32.2291 51.9172 39.6878 44.9339 42.2122C44.8028 42.2614 44.6716 42.3106 44.5241 42.3598C43.852 42.5237 43.4422 42.2286 43.4422 41.5237C43.4258 40.4582 43.4422 39.3927 43.4422 38.3272C43.4586 36.3437 43.4586 36.3437 42.5734 34.688Z" fill="black"/>
<path d="M119.904 34.1376H118.366V21.1484H120.024V25.7823C120.724 24.9377 121.617 24.5153 122.704 24.5153C123.306 24.5153 123.874 24.6335 124.408 24.8697C124.948 25.1001 125.39 25.4279 125.734 25.8532C126.084 26.2726 126.357 26.7806 126.554 27.3772C126.75 27.9738 126.849 28.6117 126.849 29.291C126.849 30.9036 126.434 32.1499 125.605 33.03C124.776 33.9101 123.782 34.3502 122.621 34.3502C121.467 34.3502 120.561 33.8865 119.904 32.9591V34.1376ZM119.886 29.3619C119.886 30.4901 120.045 31.3052 120.365 31.8073C120.887 32.6284 121.593 33.0389 122.483 33.0389C123.208 33.0389 123.834 32.7376 124.362 32.1351C124.89 31.5267 125.154 30.623 125.154 29.4239C125.154 28.1953 124.899 27.2886 124.39 26.7038C123.886 26.119 123.275 25.8266 122.557 25.8266C121.832 25.8266 121.206 26.1308 120.678 26.7393C120.15 27.3417 119.886 28.216 119.886 29.3619Z" fill="black"/>
<path d="M114.286 34.1361V32.7539C113.525 33.8172 112.49 34.3488 111.183 34.3488C110.605 34.3488 110.065 34.2425 109.562 34.0298C109.064 33.8172 108.693 33.5514 108.447 33.2324C108.208 32.9075 108.039 32.5118 107.941 32.0451C107.873 31.7321 107.839 31.2359 107.839 30.5566V24.7266H109.497V29.9452C109.497 30.7781 109.531 31.3393 109.598 31.6287C109.703 32.0481 109.924 32.3789 110.262 32.621C110.599 32.8573 111.017 32.9754 111.514 32.9754C112.011 32.9754 112.478 32.8544 112.914 32.6122C113.35 32.3641 113.657 32.0304 113.835 31.611C114.019 31.1857 114.111 30.5714 114.111 29.768V24.7266H115.769V34.1361H114.286Z" fill="black"/>
<path d="M94.5122 34.1376V21.1484H96.2989V26.4823H103.317V21.1484H105.104V34.1376H103.317V28.0151H96.2989V34.1376H94.5122Z" fill="black"/>
<path d="M92.6148 32.7116L92.8543 34.1204C92.3876 34.2149 91.9701 34.2622 91.6017 34.2622C91 34.2622 90.5334 34.1706 90.2018 33.9875C89.8702 33.8044 89.6369 33.5652 89.5018 33.2698C89.3668 32.9686 89.2992 32.3395 89.2992 31.3826V25.969H88.0835V24.7286H89.2992V22.3983L90.9478 21.4414V24.7286H92.6148V25.969H90.9478V31.4712C90.9478 31.926 90.9754 32.2184 91.0307 32.3484C91.0921 32.4783 91.1873 32.5817 91.3162 32.6585C91.4513 32.7353 91.6416 32.7737 91.8872 32.7737C92.0714 32.7737 92.314 32.753 92.6148 32.7116Z" fill="black"/>
<path d="M84.8047 22.9825V21.1484H86.4625V22.9825H84.8047ZM84.8047 34.1376V24.728H86.4625V34.1376H84.8047Z" fill="black"/>
<path d="M76.6448 29.0418V27.5178L82.3642 27.5089V32.3289C81.4862 33.0023 80.5806 33.5103 79.6473 33.8529C78.714 34.1896 77.7562 34.3579 76.7738 34.3579C75.4475 34.3579 74.241 34.0862 73.1542 33.5428C72.0736 32.9934 71.257 32.2019 70.7044 31.1682C70.1518 30.1345 69.8755 28.9797 69.8755 27.7039C69.8755 26.4398 70.1487 25.2614 70.6952 24.1686C71.2478 23.07 72.0398 22.2548 73.0714 21.7232C74.1029 21.1916 75.291 20.9258 76.6356 20.9258C77.6119 20.9258 78.493 21.0794 79.2789 21.3865C80.0709 21.6878 80.6911 22.1101 81.1393 22.6535C81.5875 23.197 81.9283 23.9058 82.1616 24.78L80.5499 25.2053C80.3472 24.5437 80.0955 24.0239 79.7946 23.6459C79.4938 23.2678 79.064 22.9666 78.5052 22.7421C77.9465 22.5118 77.3264 22.3966 76.6448 22.3966C75.8282 22.3966 75.1221 22.5177 74.5265 22.7599C73.931 22.9961 73.449 23.3092 73.0806 23.699C72.7183 24.0889 72.4359 24.5171 72.2332 24.9838C71.8894 25.7871 71.7175 26.6584 71.7175 27.5975C71.7175 28.7553 71.9232 29.724 72.3346 30.5037C72.7521 31.2834 73.3569 31.8623 74.1489 32.2403C74.941 32.6183 75.7822 32.8074 76.6725 32.8074C77.4461 32.8074 78.2013 32.6656 78.9381 32.3821C79.6749 32.0926 80.2337 31.7855 80.6143 31.4606V29.0418H76.6448Z" fill="black"/>
</svg>
